<?xml version="1.0" encoding="UTF-8"?>
<!-- Generator: CustomSymbols v2.6.1.40 by @serious_bret https://bretlester.com/app_content/CustomSymbols/ -->
<!-- Guides: Left/Right 0.0/0.0 Cap/Base 0.22/0.22 -->
<!-- Settings: RefScale 1.0 Min/Max Stroke Scales 0.5/2.21 -->
<!DOCTYPE svg
PUBLIC "-//W3C//DTD SVG 1.1//EN"
       "http://www.w3.org/Graphics/SVG/1.1/DTD/svg11.dtd">
<svg version="1.1" xmlns="http://www.w3.org/2000/svg" xmlns:xlink="http://www.w3.org/1999/xlink" width="3300" height="2200">
<![CDATA[<svg xmlns="http://www.w3.org/2000/svg" viewBox="0 0 24 24"><path d="M8.145 21.449c-2.15 0-4.638-.552-7.39-2.097-.208-.117-.304-.364-.23-.59s.297-.375.533-.342c1.814.208 3.795-.217 5.275-1.086-1.695-.398-3.065-1.499-3.788-3.098a.499.499 0 0 1 .08-.536c.13-.148.334-.205.522-.148.218.067.435.113.644.138-1.287-.768-2.665-2.238-2.665-4.441a.5.5 0 0 1 .814-.389c.16.13.331.239.508.325a5.362 5.362 0 0 1-.869-1.817c-.332-1.282-.139-2.582.557-3.756a.501.501 0 0 1 .821-.057c1.472 1.839 4.088 4.061 8.294 4.466-.078-1.331.322-3.512 2.16-4.585 2.261-1.32 4.436-1.15 6.305.487.828-.184 2.135-.752 2.406-.941a.5.5 0 0 1 .77.538c-.125.471-.408.995-.76 1.463.279-.083.514-.167.639-.231a.5.5 0 0 1 .652.711c-.588.93-1.539 1.796-2.174 2.266.343 4.225-2.126 8.946-6.089 11.577-1.47.975-3.886 2.143-7.015 2.143zM3.15 19.406c5.351 2.195 9.403.428 11.456-.935 3.756-2.494 6.067-6.988 5.62-10.929a.498.498 0 0 1 .222-.474c.269-.177.68-.502 1.094-.905-.407.088-.802.147-1.089.148-.276-.033-.447-.169-.492-.405a.498.498 0 0 1 .306-.559c.283-.113.665-.454.995-.872-.566.219-1.178.413-1.628.478a.497.497 0 0 1-.413-.131c-1.578-1.482-3.362-1.658-5.306-.524-1.745 1.02-1.784 3.397-1.6 4.148a.499.499 0 0 1-.513.619C7.331 8.829 4.427 6.719 2.68 4.773a3.808 3.808 0 0 0-.132 2.344c.294 1.133 1.034 2.002 1.596 2.33a.5.5 0 0 1-.153.922 3.106 3.106 0 0 1-1.752-.185c.521 2.085 2.689 3.067 3.299 3.135a.501.501 0 0 1 .268.879c-.437.369-1.091.547-1.828.51.836 1.114 2.132 1.754 3.681 1.788a.5.5 0 0 1 .323.872c-1.228 1.1-2.99 1.823-4.832 2.038z"/></svg>]]>
 <g id="Notes">
  <rect height="2200" id="artboard" style="fill:white;opacity:1" width="3300" x="0" y="0"/>
  <line id="" style="fill:none;stroke:black;opacity:1;stroke-width:0.5;" x1="263" x2="3036" y1="292" y2="292"/>
  <text id="reftext1" style="stroke:none;fill:black;font-family:-apple-system,&quot;SF Pro Display&quot;,&quot;SF Pro Text&quot;,Helvetica,sans-serif;font-weight:bold;" transform="matrix(1 0 0 1 263 322)">Weight/Scale Variations</text>
  <text id="reftext2" style="stroke:none;fill:black;font-family:-apple-system,&quot;SF Pro Display&quot;,&quot;SF Pro Text&quot;,Helvetica,sans-serif;text-anchor:middle;" transform="matrix(1 0 0 1 559.711 322)">Ultralight</text>
  <text style="stroke:none;fill:black;font-family:-apple-system,&quot;SF Pro Display&quot;,&quot;SF Pro Text&quot;,Helvetica,sans-serif;text-anchor:middle;" transform="matrix(1 0 0 1 856.422 322)">Thin</text>
  <text style="stroke:none;fill:black;font-family:-apple-system,&quot;SF Pro Display&quot;,&quot;SF Pro Text&quot;,Helvetica,sans-serif;text-anchor:middle;" transform="matrix(1 0 0 1 1153.13 322)">Light</text>
  <text style="stroke:none;fill:black;font-family:-apple-system,&quot;SF Pro Display&quot;,&quot;SF Pro Text&quot;,Helvetica,sans-serif;text-anchor:middle;" transform="matrix(1 0 0 1 1449.84 322)">Regular</text>
  <text style="stroke:none;fill:black;font-family:-apple-system,&quot;SF Pro Display&quot;,&quot;SF Pro Text&quot;,Helvetica,sans-serif;text-anchor:middle;" transform="matrix(1 0 0 1 1746.56 322)">Medium</text>
  <text style="stroke:none;fill:black;font-family:-apple-system,&quot;SF Pro Display&quot;,&quot;SF Pro Text&quot;,Helvetica,sans-serif;text-anchor:middle;" transform="matrix(1 0 0 1 2043.27 322)">Semibold</text>
  <text style="stroke:none;fill:black;font-family:-apple-system,&quot;SF Pro Display&quot;,&quot;SF Pro Text&quot;,Helvetica,sans-serif;text-anchor:middle;" transform="matrix(1 0 0 1 2339.98 322)">Bold</text>
  <text style="stroke:none;fill:black;font-family:-apple-system,&quot;SF Pro Display&quot;,&quot;SF Pro Text&quot;,Helvetica,sans-serif;text-anchor:middle;" transform="matrix(1 0 0 1 2636.69 322)">Heavy</text>
  <text style="stroke:none;fill:black;font-family:-apple-system,&quot;SF Pro Display&quot;,&quot;SF Pro Text&quot;,Helvetica,sans-serif;text-anchor:middle;" transform="matrix(1 0 0 1 2933.4 322)">Black</text>
  <line id="" style="fill:none;stroke:black;opacity:1;stroke-width:0.5;" x1="263" x2="3036" y1="1903" y2="1903"/>
  <g id="" transform="matrix(1 0 0 1 263 1933)">
   <path d="M9.24805 0.830078C13.5547 0.830078 17.1387-2.74414 17.1387-7.05078C17.1387-11.3574 13.5449-14.9316 9.23828-14.9316C4.94141-14.9316 1.36719-11.3574 1.36719-7.05078C1.36719-2.74414 4.95117 0.830078 9.24805 0.830078ZM9.24805-0.654297C5.70312-0.654297 2.87109-3.49609 2.87109-7.05078C2.87109-10.6055 5.69336-13.4473 9.23828-13.4473C12.793-13.4473 15.6348-10.6055 15.6445-7.05078C15.6543-3.49609 12.8027-0.654297 9.24805-0.654297ZM6.39648-6.31836L8.50586-6.31836L8.50586-4.19922C8.50586-3.75977 8.79883-3.45703 9.22852-3.45703C9.67773-3.45703 9.9707-3.75977 9.9707-4.19922L9.9707-6.31836L12.0996-6.31836C12.5391-6.31836 12.8418-6.61133 12.8418-7.04102C12.8418-7.48047 12.5391-7.7832 12.0996-7.7832L9.9707-7.7832L9.9707-9.89258C9.9707-10.3418 9.67773-10.6445 9.22852-10.6445C8.79883-10.6445 8.50586-10.3418 8.50586-9.89258L8.50586-7.7832L6.39648-7.7832C5.94727-7.7832 5.64453-7.48047 5.64453-7.04102C5.64453-6.61133 5.94727-6.31836 6.39648-6.31836Z"/>
  </g>
  <g id="" transform="matrix(1 0 0 1 281.506 1933)">
   <path d="M11.709 2.91016C17.1582 2.91016 21.6699-1.61133 21.6699-7.05078C21.6699-12.5 17.1484-17.0117 11.6992-17.0117C6.25977-17.0117 1.74805-12.5 1.74805-7.05078C1.74805-1.61133 6.26953 2.91016 11.709 2.91016ZM11.709 1.25C7.09961 1.25 3.41797-2.44141 3.41797-7.05078C3.41797-11.6602 7.08984-15.3516 11.6992-15.3516C16.3086-15.3516 20-11.6602 20.0098-7.05078C20.0195-2.44141 16.3184 1.25 11.709 1.25ZM7.98828-6.23047L10.8789-6.23047L10.8789-3.32031C10.8789-2.83203 11.2109-2.5 11.6895-2.5C12.1777-2.5 12.5195-2.83203 12.5195-3.32031L12.5195-6.23047L15.4297-6.23047C15.918-6.23047 16.25-6.5625 16.25-7.04102C16.25-7.5293 15.918-7.87109 15.4297-7.87109L12.5195-7.87109L12.5195-10.7617C12.5195-11.2695 12.1777-11.6016 11.6895-11.6016C11.2109-11.6016 10.8789-11.2598 10.8789-10.7617L10.8789-7.87109L7.98828-7.87109C7.48047-7.87109 7.14844-7.5293 7.14844-7.04102C7.14844-6.5625 7.49023-6.23047 7.98828-6.23047Z"/>
  </g>
  <g id="" transform="matrix(1 0 0 1 304.924 1933)">
   <path d="M14.9707 5.66406C21.9336 5.66406 27.6953-0.0976562 27.6953-7.05078C27.6953-14.0137 21.9238-19.7754 14.9609-19.7754C8.00781-19.7754 2.25586-14.0137 2.25586-7.05078C2.25586-0.0976562 8.01758 5.66406 14.9707 5.66406ZM14.9707 3.84766C8.93555 3.84766 4.08203-1.01562 4.08203-7.05078C4.08203-13.0957 8.92578-17.9492 14.9609-17.9492C21.0059-17.9492 25.8594-13.0957 25.8691-7.05078C25.8789-1.01562 21.0156 3.84766 14.9707 3.84766ZM10.0586-6.14258L14.0625-6.14258L14.0625-2.12891C14.0625-1.5918 14.4336-1.2207 14.9512-1.2207C15.4883-1.2207 15.8594-1.5918 15.8594-2.12891L15.8594-6.14258L19.8828-6.14258C20.4102-6.14258 20.791-6.51367 20.791-7.03125C20.791-7.56836 20.4199-7.94922 19.8828-7.94922L15.8594-7.94922L15.8594-11.9531C15.8594-12.5098 15.4883-12.8809 14.9512-12.8809C14.4336-12.8809 14.0625-12.5 14.0625-11.9531L14.0625-7.94922L10.0586-7.94922C9.50195-7.94922 9.13086-7.56836 9.13086-7.03125C9.13086-6.51367 9.51172-6.14258 10.0586-6.14258Z"/>
  </g>
  <text style="stroke:none;fill:black;font-family:-apple-system,&quot;SF Pro Display&quot;,&quot;SF Pro Text&quot;,Helvetica,sans-serif;font-weight:bold;" transform="matrix(1 0 0 1 263 1953)">Design Variations</text>
  <text style="stroke:none;fill:black;font-family:-apple-system,&quot;SF Pro Display&quot;,&quot;SF Pro Text&quot;,Helvetica,sans-serif;" transform="matrix(1 0 0 1 263 1971)">Symbols are supported in up to nine weights and three scales.</text>
  <text style="stroke:none;fill:black;font-family:-apple-system,&quot;SF Pro Display&quot;,&quot;SF Pro Text&quot;,Helvetica,sans-serif;" transform="matrix(1 0 0 1 263 1989)">For optimal layout with text and other symbols, vertically align</text>
  <text style="stroke:none;fill:black;font-family:-apple-system,&quot;SF Pro Display&quot;,&quot;SF Pro Text&quot;,Helvetica,sans-serif;" transform="matrix(1 0 0 1 263 2007)">symbols with the adjacent text.</text>
  <line id="" style="fill:none;stroke:#00AEEF;stroke-width:0.5;opacity:1.0;" x1="776" x2="776" y1="1919" y2="1933"/>
  <g id="" transform="matrix(1 0 0 1 776 1933)">
   <path d="M3.31055 0.126953C3.82812 0.126953 4.08203-0.0683594 4.26758-0.605469L5.52734-4.0625L11.2891-4.0625L12.5488-0.605469C12.7344-0.0683594 12.9883 0.126953 13.4961 0.126953C14.0137 0.126953 14.3457-0.185547 14.3457-0.673828C14.3457-0.839844 14.3164-0.986328 14.2383-1.20117L9.6582-13.3887C9.43359-13.9941 9.0332-14.2871 8.4082-14.2871C7.80273-14.2871 7.39258-13.9941 7.17773-13.3984L2.59766-1.19141C2.51953-0.976562 2.49023-0.830078 2.49023-0.664062C2.49023-0.175781 2.80273 0.126953 3.31055 0.126953ZM6.00586-5.53711L8.37891-12.1094L8.42773-12.1094L10.8008-5.53711Z"/>
  </g>
  <line id="" style="fill:none;stroke:#00AEEF;stroke-width:0.5;opacity:1.0;" x1="792.836" x2="792.836" y1="1919" y2="1933"/>
  <text style="stroke:none;fill:black;font-family:-apple-system,&quot;SF Pro Display&quot;,&quot;SF Pro Text&quot;,Helvetica,sans-serif;font-weight:bold;" transform="matrix(1 0 0 1 776 1953)">Margins</text>
  <text style="stroke:none;fill:black;font-family:-apple-system,&quot;SF Pro Display&quot;,&quot;SF Pro Text&quot;,Helvetica,sans-serif;" transform="matrix(1 0 0 1 776 1971)">Leading and trailing margins on the left and right side of each symbol</text>
  <text style="stroke:none;fill:black;font-family:-apple-system,&quot;SF Pro Display&quot;,&quot;SF Pro Text&quot;,Helvetica,sans-serif;" transform="matrix(1 0 0 1 776 1989)">can be adjusted by modifying the x-location of the margin guidelines.</text>
  <text style="stroke:none;fill:black;font-family:-apple-system,&quot;SF Pro Display&quot;,&quot;SF Pro Text&quot;,Helvetica,sans-serif;" transform="matrix(1 0 0 1 776 2007)">Modifications are automatically applied proportionally to all</text>
  <text style="stroke:none;fill:black;font-family:-apple-system,&quot;SF Pro Display&quot;,&quot;SF Pro Text&quot;,Helvetica,sans-serif;" transform="matrix(1 0 0 1 776 2025)">scales and weights.</text>
  <g id="" transform="matrix(1 0 0 1 1289 1933)">
   <path d="M2.8418 1.86523L4.54102 3.57422C5.40039 4.44336 6.38672 4.38477 7.31445 3.35938L17.4902-7.85156C17.7539-7.76367 18.0273-7.7832 18.3398-7.8418L19.4043-8.03711L20.0684-7.36328L20.0293-6.80664C19.9902-6.30859 20.1172-5.92773 20.6055-5.44922L21.3672-4.70703C21.8457-4.22852 22.4609-4.19922 22.9297-4.66797L25.8398-7.58789C26.3086-8.05664 26.2891-8.65234 25.8105-9.13086L25.0391-9.89258C24.5605-10.3711 24.1895-10.5273 23.7109-10.4883L23.1348-10.4395L22.4902-11.0742L22.7344-12.1973C22.8613-12.7637 22.7051-13.2031 22.1191-13.7891L19.9219-15.9766C16.582-19.2969 12.1484-19.2188 9.25781-16.3281C8.83789-15.918 8.80859-15.3418 9.04297-14.9512C9.27734-14.5898 9.73633-14.3555 10.3809-14.5215C11.8457-14.8633 13.3691-14.9219 14.7949-13.9844L14.209-12.5293C14.0137-12.0508 13.9844-11.6504 14.1113-11.2891L3.04688-0.898438C2.06055 0.0195312 1.98242 0.996094 2.8418 1.86523ZM10.752-15.957C13.1836-17.7344 16.4746-17.4316 18.7012-15.2051L21.1328-12.793C21.3672-12.5586 21.4062-12.373 21.3379-12.0312L21.0156-10.5469L22.5195-9.0625L23.5059-9.12109C23.7598-9.13086 23.8379-9.11133 24.0332-8.91602L24.6094-8.33984L22.168-5.89844L21.5918-6.47461C21.3965-6.66992 21.3672-6.74805 21.377-7.01172L21.4453-7.98828L19.9512-9.47266L18.4277-9.21875C18.1055-9.15039 17.959-9.17969 17.7148-9.41406L15.7129-11.416C15.459-11.6504 15.4297-11.8164 15.5859-12.1875L16.4648-14.2773C14.9023-15.7324 12.8711-16.3574 10.8398-15.7617C10.6836-15.7227 10.625-15.8496 10.752-15.957ZM5.27344 2.30469L4.10156 1.14258C3.63281 0.683594 3.74023 0.341797 4.14062-0.0195312L14.9512-10.1953L16.416-8.71094L6.42578 2.27539C6.07422 2.67578 5.74219 2.77344 5.27344 2.30469Z"/>
  </g>
  <text style="stroke:none;fill:black;font-family:-apple-system,&quot;SF Pro Display&quot;,&quot;SF Pro Text&quot;,Helvetica,sans-serif;font-weight:bold;" transform="matrix(1 0 0 1 1289 1953)">Exporting</text>
  <text style="stroke:none;fill:black;font-family:-apple-system,&quot;SF Pro Display&quot;,&quot;SF Pro Text&quot;,Helvetica,sans-serif;" transform="matrix(1 0 0 1 1289 1971)">Symbols should be outlined when exporting to ensure the</text>
  <text style="stroke:none;fill:black;font-family:-apple-system,&quot;SF Pro Display&quot;,&quot;SF Pro Text&quot;,Helvetica,sans-serif;" transform="matrix(1 0 0 1 1289 1989)">design is preserved when submitting to Xcode.</text>
  <text id="template-version" style="stroke:none;fill:black;font-family:-apple-system,&quot;SF Pro Display&quot;,&quot;SF Pro Text&quot;,Helvetica,sans-serif;text-anchor:end;" transform="matrix(1 0 0 1 3036 1933)">Template v.2.0</text>
  <text style="stroke:none;fill:black;font-family:-apple-system,&quot;SF Pro Display&quot;,&quot;SF Pro Text&quot;,Helvetica,sans-serif;text-anchor:end;" transform="matrix(1 0 0 1 3036 1951)">Requires Xcode 12 or greater</text>
  <text style="stroke:none;fill:black;font-family:-apple-system,&quot;SF Pro Display&quot;,&quot;SF Pro Text&quot;,Helvetica,sans-serif;" transform="matrix(1 0 0 1 263 726)">Small</text>
  <text style="stroke:none;fill:black;font-family:-apple-system,&quot;SF Pro Display&quot;,&quot;SF Pro Text&quot;,Helvetica,sans-serif;" transform="matrix(1 0 0 1 263 1156)">Medium</text>
  <text style="stroke:none;fill:black;font-family:-apple-system,&quot;SF Pro Display&quot;,&quot;SF Pro Text&quot;,Helvetica,sans-serif;" transform="matrix(1 0 0 1 263 1586)">Large</text>
 </g>
 <g id="Guides">
  <g id="H-reference" style="fill:#27AAE1;stroke:none;" transform="matrix(1 0 0 1 339 696)">
   <path d="M0.976562 0L3.66211 0L12.9883-24.4629L45.752-24.4629L55.127 0L57.7637 0L30.6152-70.459L28.125-70.459ZM29.3457-67.1387L29.4434-67.1387L44.873-26.709L13.8672-26.709Z"/>
  </g>
  <line id="Baseline-S" style="fill:none;stroke:#27AAE1;opacity:1;stroke-width:0.5;" x1="263" x2="3036" y1="696" y2="696"/>
  <line id="Capline-S" style="fill:none;stroke:#27AAE1;opacity:1;stroke-width:0.5;" x1="263" x2="3036" y1="625.541" y2="625.541"/>
  <g id="H-reference" style="fill:#27AAE1;stroke:none;" transform="matrix(1 0 0 1 339 1126)">
   <path d="M0.976562 0L3.66211 0L12.9883-24.4629L45.752-24.4629L55.127 0L57.7637 0L30.6152-70.459L28.125-70.459ZM29.3457-67.1387L29.4434-67.1387L44.873-26.709L13.8672-26.709Z"/>
  </g>
  <line id="Baseline-M" style="fill:none;stroke:#27AAE1;opacity:1;stroke-width:0.5;" x1="263" x2="3036" y1="1126" y2="1126"/>
  <line id="Capline-M" style="fill:none;stroke:#27AAE1;opacity:1;stroke-width:0.5;" x1="263" x2="3036" y1="1055.54" y2="1055.54"/>
  <g id="H-reference" style="fill:#27AAE1;stroke:none;" transform="matrix(1 0 0 1 339 1556)">
   <path d="M0.976562 0L3.66211 0L12.9883-24.4629L45.752-24.4629L55.127 0L57.7637 0L30.6152-70.459L28.125-70.459ZM29.3457-67.1387L29.4434-67.1387L44.873-26.709L13.8672-26.709Z"/>
  </g>
  <line id="Baseline-L" style="fill:none;stroke:#27AAE1;opacity:1;stroke-width:0.5;" x1="263" x2="3036" y1="1556" y2="1556"/>
  <line id="Capline-L" style="fill:none;stroke:#27AAE1;opacity:1;stroke-width:0.5;" x1="263" x2="3036" y1="1485.54" y2="1485.54"/>
  <line id="left-margin" x1="1388.2193205915178" x2="1388.2193205915178" y1="1030.79" y2="1150.12" style="fill:none;stroke:#00AEEF;stroke-width:0.5;opacity:1.0;"/>
  <line id="right-margin" x1="1514.040679408482" x2="1514.040679408482" y1="1030.79" y2="1150.12" style="fill:none;stroke:#00AEEF;stroke-width:0.5;opacity:1.0;"/>
 </g>
 <g id="Symbols">
  <g id="Black-L" transform="matrix(1.0,0.0,0.0,1.0,2853.525223563058,1439.615243094308)">  <path stroke-linejoin="miter" stroke-dasharray="none" stroke-width="1px" stroke-linecap="butt" fill="#000000" fill-opacity="1" stroke-opacity="1" stroke-miterlimit="4" stroke="none" fill-rule="nonzero" d="M55.084,145.057C40.544,145.057,23.717,141.324,5.106,130.876C3.699,130.084,3.05,128.414,3.551,126.885C4.051,125.357,5.559,124.349,7.155,124.573C19.423,125.979,32.82,123.105,42.829,117.228C31.366,114.536,22.101,107.09,17.212,96.277C16.663,95.067,16.875,93.648,17.753,92.652C18.632,91.651,20.011,91.265,21.283,91.651C22.757,92.104,24.225,92.415,25.638,92.584C16.934,87.39,7.615,77.449,7.615,62.55C7.615,61.248,8.363,60.061,9.538,59.5C10.713,58.938,12.107,59.101,13.12,59.919C14.202,60.798,15.359,61.536,16.556,62.117C13.838,58.429,11.844,54.26,10.679,49.829C8.433,41.159,9.739,32.367,14.446,24.428C15.014,23.474,16.014,22.86,17.121,22.783C18.228,22.706,19.303,23.176,19.998,24.042C29.953,36.479,47.645,51.506,76.089,54.245C75.562,45.244,78.267,30.494,90.697,23.237C105.988,14.31,120.697,15.46,133.337,26.531C138.937,25.286,147.776,21.445,149.609,20.167C150.772,19.352,152.321,19.352,153.485,20.165C154.649,20.979,155.181,22.433,154.816,23.805C153.971,26.991,152.057,30.534,149.676,33.7C151.563,33.138,153.153,32.57,153.998,32.137C155.353,31.439,157.008,31.734,158.038,32.858C159.069,33.982,159.22,35.656,158.407,36.946C154.431,43.235,147.999,49.092,143.705,52.27C146.024,80.844,129.327,112.771,102.526,130.565C92.584,137.158,76.245,145.057,55.084,145.057ZM21.303,131.241C57.491,146.085,84.895,134.135,98.779,124.917C124.18,108.051,139.809,77.658,136.786,51.006C136.64,49.739,137.221,48.498,138.288,47.8C140.107,46.603,142.887,44.405,145.686,41.68C142.934,42.275,140.263,42.674,138.322,42.681C136.455,42.457,135.299,41.538,134.994,39.942C134.682,38.347,135.552,36.757,137.064,36.161C138.978,35.397,141.561,33.091,143.793,30.264C139.965,31.745,135.826,33.057,132.783,33.497C131.765,33.644,130.736,33.318,129.99,32.611C119.318,22.588,107.253,21.398,94.106,29.067C82.304,35.965,82.041,52.041,83.285,57.119C83.545,58.161,83.294,59.264,82.609,60.09C81.924,60.916,80.887,61.368,79.816,61.306C49.579,59.71,29.939,45.44,18.125,32.279C16.165,37.337,15.852,42.885,17.232,48.132C19.22,55.794,24.225,61.671,28.025,63.889C29.238,64.596,29.887,65.979,29.657,67.363C29.428,68.748,28.366,69.847,26.991,70.124C23.003,70.86,18.888,70.425,15.142,68.873C18.666,82.974,33.328,89.615,37.453,90.075C38.793,90.229,39.915,91.163,40.308,92.453C40.702,93.744,40.292,95.144,39.265,96.02C36.31,98.515,31.887,99.719,26.903,99.469C32.557,107.003,41.321,111.331,51.797,111.561C53.184,111.591,54.412,112.466,54.894,113.767C55.376,115.068,55.014,116.531,53.981,117.458C45.677,124.897,33.76,129.787,21.303,131.241ZM21.303,131.241"/>
</g>
  <g id="Heavy-L" transform="matrix(1.0,0.0,0.0,1.0,2556.8152235630578,1439.615243094308)">  <path stroke-width="1px" fill-rule="nonzero" stroke-opacity="1" stroke-linecap="butt" stroke="none" stroke-dasharray="none" stroke-miterlimit="4" fill-opacity="1" fill="#000000" stroke-linejoin="miter" d="M55.084,145.057C40.544,145.057,23.717,141.324,5.106,130.876C3.699,130.084,3.05,128.414,3.551,126.885C4.051,125.357,5.559,124.349,7.155,124.573C19.423,125.979,32.82,123.105,42.829,117.228C31.366,114.536,22.101,107.09,17.212,96.277C16.663,95.067,16.875,93.648,17.753,92.652C18.632,91.651,20.011,91.265,21.283,91.651C22.757,92.104,24.225,92.415,25.638,92.584C16.934,87.39,7.615,77.449,7.615,62.55C7.615,61.248,8.363,60.061,9.538,59.5C10.713,58.938,12.107,59.101,13.12,59.919C14.202,60.798,15.359,61.536,16.556,62.117C13.838,58.429,11.844,54.26,10.679,49.829C8.433,41.159,9.739,32.367,14.446,24.428C15.014,23.474,16.014,22.86,17.121,22.783C18.228,22.706,19.303,23.176,19.998,24.042C29.953,36.479,47.645,51.506,76.089,54.245C75.562,45.244,78.267,30.494,90.697,23.237C105.988,14.31,120.697,15.46,133.337,26.531C138.937,25.286,147.776,21.445,149.609,20.167C150.772,19.352,152.321,19.352,153.485,20.165C154.649,20.979,155.181,22.433,154.816,23.805C153.971,26.991,152.057,30.534,149.676,33.7C151.563,33.138,153.153,32.57,153.998,32.137C155.353,31.439,157.008,31.734,158.038,32.858C159.069,33.982,159.22,35.656,158.407,36.946C154.431,43.235,147.999,49.092,143.705,52.27C146.024,80.844,129.327,112.771,102.526,130.565C92.584,137.158,76.245,145.057,55.084,145.057ZM21.303,131.241C57.491,146.085,84.895,134.135,98.779,124.917C124.18,108.051,139.809,77.658,136.786,51.006C136.64,49.739,137.221,48.498,138.288,47.8C140.107,46.603,142.887,44.405,145.686,41.68C142.934,42.275,140.263,42.674,138.322,42.681C136.455,42.457,135.299,41.538,134.994,39.942C134.682,38.347,135.552,36.757,137.064,36.161C138.978,35.397,141.561,33.091,143.793,30.264C139.965,31.745,135.826,33.057,132.783,33.497C131.765,33.644,130.736,33.318,129.99,32.611C119.318,22.588,107.253,21.398,94.106,29.067C82.304,35.965,82.041,52.041,83.285,57.119C83.545,58.161,83.294,59.264,82.609,60.09C81.924,60.916,80.887,61.368,79.816,61.306C49.579,59.71,29.939,45.44,18.125,32.279C16.165,37.337,15.852,42.885,17.232,48.132C19.22,55.794,24.225,61.671,28.025,63.889C29.238,64.596,29.887,65.979,29.657,67.363C29.428,68.748,28.366,69.847,26.991,70.124C23.003,70.86,18.888,70.425,15.142,68.873C18.666,82.974,33.328,89.615,37.453,90.075C38.793,90.229,39.915,91.163,40.308,92.453C40.702,93.744,40.292,95.144,39.265,96.02C36.31,98.515,31.887,99.719,26.903,99.469C32.557,107.003,41.321,111.331,51.797,111.561C53.184,111.591,54.412,112.466,54.894,113.767C55.376,115.068,55.014,116.531,53.981,117.458C45.677,124.897,33.76,129.787,21.303,131.241ZM21.303,131.241"/>
</g>
  <g id="Bold-L" transform="matrix(1.0,0.0,0.0,1.0,2260.1052235630577,1439.615243094308)">  <path fill-opacity="1" stroke-linejoin="miter" stroke-dasharray="none" stroke-width="1px" stroke="none" fill-rule="nonzero" stroke-miterlimit="4" stroke-linecap="butt" fill="#000000" stroke-opacity="1" d="M55.084,145.057C40.544,145.057,23.717,141.324,5.106,130.876C3.699,130.084,3.05,128.414,3.551,126.885C4.051,125.357,5.559,124.349,7.155,124.573C19.423,125.979,32.82,123.105,42.829,117.228C31.366,114.536,22.101,107.09,17.212,96.277C16.663,95.067,16.875,93.648,17.753,92.652C18.632,91.651,20.011,91.265,21.283,91.651C22.757,92.104,24.225,92.415,25.638,92.584C16.934,87.39,7.615,77.449,7.615,62.55C7.615,61.248,8.363,60.061,9.538,59.5C10.713,58.938,12.107,59.101,13.12,59.919C14.202,60.798,15.359,61.536,16.556,62.117C13.838,58.429,11.844,54.26,10.679,49.829C8.433,41.159,9.739,32.367,14.446,24.428C15.014,23.474,16.014,22.86,17.121,22.783C18.228,22.706,19.303,23.176,19.998,24.042C29.953,36.479,47.645,51.506,76.089,54.245C75.562,45.244,78.267,30.494,90.697,23.237C105.988,14.31,120.697,15.46,133.337,26.531C138.937,25.286,147.776,21.445,149.609,20.167C150.772,19.352,152.321,19.352,153.485,20.165C154.649,20.979,155.181,22.433,154.816,23.805C153.971,26.991,152.057,30.534,149.676,33.7C151.563,33.138,153.153,32.57,153.998,32.137C155.353,31.439,157.008,31.734,158.038,32.858C159.069,33.982,159.22,35.656,158.407,36.946C154.431,43.235,147.999,49.092,143.705,52.27C146.024,80.844,129.327,112.771,102.526,130.565C92.584,137.158,76.245,145.057,55.084,145.057ZM21.303,131.241C57.491,146.085,84.895,134.135,98.779,124.917C124.18,108.051,139.809,77.658,136.786,51.006C136.64,49.739,137.221,48.498,138.288,47.8C140.107,46.603,142.887,44.405,145.686,41.68C142.934,42.275,140.263,42.674,138.322,42.681C136.455,42.457,135.299,41.538,134.994,39.942C134.682,38.347,135.552,36.757,137.064,36.161C138.978,35.397,141.561,33.091,143.793,30.264C139.965,31.745,135.826,33.057,132.783,33.497C131.765,33.644,130.736,33.318,129.99,32.611C119.318,22.588,107.253,21.398,94.106,29.067C82.304,35.965,82.041,52.041,83.285,57.119C83.545,58.161,83.294,59.264,82.609,60.09C81.924,60.916,80.887,61.368,79.816,61.306C49.579,59.71,29.939,45.44,18.125,32.279C16.165,37.337,15.852,42.885,17.232,48.132C19.22,55.794,24.225,61.671,28.025,63.889C29.238,64.596,29.887,65.979,29.657,67.363C29.428,68.748,28.366,69.847,26.991,70.124C23.003,70.86,18.888,70.425,15.142,68.873C18.666,82.974,33.328,89.615,37.453,90.075C38.793,90.229,39.915,91.163,40.308,92.453C40.702,93.744,40.292,95.144,39.265,96.02C36.31,98.515,31.887,99.719,26.903,99.469C32.557,107.003,41.321,111.331,51.797,111.561C53.184,111.591,54.412,112.466,54.894,113.767C55.376,115.068,55.014,116.531,53.981,117.458C45.677,124.897,33.76,129.787,21.303,131.241ZM21.303,131.241"/>
</g>
  <g id="Semibold-L" transform="matrix(1.0,0.0,0.0,1.0,1963.395223563058,1439.615243094308)">  <path fill-rule="nonzero" stroke-opacity="1" stroke="none" stroke-dasharray="none" stroke-miterlimit="4" fill="#000000" fill-opacity="1" stroke-linecap="butt" stroke-linejoin="miter" stroke-width="1px" d="M55.084,145.057C40.544,145.057,23.717,141.324,5.106,130.876C3.699,130.084,3.05,128.414,3.551,126.885C4.051,125.357,5.559,124.349,7.155,124.573C19.423,125.979,32.82,123.105,42.829,117.228C31.366,114.536,22.101,107.09,17.212,96.277C16.663,95.067,16.875,93.648,17.753,92.652C18.632,91.651,20.011,91.265,21.283,91.651C22.757,92.104,24.225,92.415,25.638,92.584C16.934,87.39,7.615,77.449,7.615,62.55C7.615,61.248,8.363,60.061,9.538,59.5C10.713,58.938,12.107,59.101,13.12,59.919C14.202,60.798,15.359,61.536,16.556,62.117C13.838,58.429,11.844,54.26,10.679,49.829C8.433,41.159,9.739,32.367,14.446,24.428C15.014,23.474,16.014,22.86,17.121,22.783C18.228,22.706,19.303,23.176,19.998,24.042C29.953,36.479,47.645,51.506,76.089,54.245C75.562,45.244,78.267,30.494,90.697,23.237C105.988,14.31,120.697,15.46,133.337,26.531C138.937,25.286,147.776,21.445,149.609,20.167C150.772,19.352,152.321,19.352,153.485,20.165C154.649,20.979,155.181,22.433,154.816,23.805C153.971,26.991,152.057,30.534,149.676,33.7C151.563,33.138,153.153,32.57,153.998,32.137C155.353,31.439,157.008,31.734,158.038,32.858C159.069,33.982,159.22,35.656,158.407,36.946C154.431,43.235,147.999,49.092,143.705,52.27C146.024,80.844,129.327,112.771,102.526,130.565C92.584,137.158,76.245,145.057,55.084,145.057ZM21.303,131.241C57.491,146.085,84.895,134.135,98.779,124.917C124.18,108.051,139.809,77.658,136.786,51.006C136.64,49.739,137.221,48.498,138.288,47.8C140.107,46.603,142.887,44.405,145.686,41.68C142.934,42.275,140.263,42.674,138.322,42.681C136.455,42.457,135.299,41.538,134.994,39.942C134.682,38.347,135.552,36.757,137.064,36.161C138.978,35.397,141.561,33.091,143.793,30.264C139.965,31.745,135.826,33.057,132.783,33.497C131.765,33.644,130.736,33.318,129.99,32.611C119.318,22.588,107.253,21.398,94.106,29.067C82.304,35.965,82.041,52.041,83.285,57.119C83.545,58.161,83.294,59.264,82.609,60.09C81.924,60.916,80.887,61.368,79.816,61.306C49.579,59.71,29.939,45.44,18.125,32.279C16.165,37.337,15.852,42.885,17.232,48.132C19.22,55.794,24.225,61.671,28.025,63.889C29.238,64.596,29.887,65.979,29.657,67.363C29.428,68.748,28.366,69.847,26.991,70.124C23.003,70.86,18.888,70.425,15.142,68.873C18.666,82.974,33.328,89.615,37.453,90.075C38.793,90.229,39.915,91.163,40.308,92.453C40.702,93.744,40.292,95.144,39.265,96.02C36.31,98.515,31.887,99.719,26.903,99.469C32.557,107.003,41.321,111.331,51.797,111.561C53.184,111.591,54.412,112.466,54.894,113.767C55.376,115.068,55.014,116.531,53.981,117.458C45.677,124.897,33.76,129.787,21.303,131.241ZM21.303,131.241"/>
</g>
  <g id="Medium-L" transform="matrix(1.0,0.0,0.0,1.0,1666.685223563058,1439.615243094308)">  <path fill="#000000" stroke-dasharray="none" fill-rule="nonzero" stroke-linecap="butt" stroke-width="1px" stroke-opacity="1" stroke-linejoin="miter" stroke-miterlimit="4" fill-opacity="1" stroke="none" d="M55.084,145.057C40.544,145.057,23.717,141.324,5.106,130.876C3.699,130.084,3.05,128.414,3.551,126.885C4.051,125.357,5.559,124.349,7.155,124.573C19.423,125.979,32.82,123.105,42.829,117.228C31.366,114.536,22.101,107.09,17.212,96.277C16.663,95.067,16.875,93.648,17.753,92.652C18.632,91.651,20.011,91.265,21.283,91.651C22.757,92.104,24.225,92.415,25.638,92.584C16.934,87.39,7.615,77.449,7.615,62.55C7.615,61.248,8.363,60.061,9.538,59.5C10.713,58.938,12.107,59.101,13.12,59.919C14.202,60.798,15.359,61.536,16.556,62.117C13.838,58.429,11.844,54.26,10.679,49.829C8.433,41.159,9.739,32.367,14.446,24.428C15.014,23.474,16.014,22.86,17.121,22.783C18.228,22.706,19.303,23.176,19.998,24.042C29.953,36.479,47.645,51.506,76.089,54.245C75.562,45.244,78.267,30.494,90.697,23.237C105.988,14.31,120.697,15.46,133.337,26.531C138.937,25.286,147.776,21.445,149.609,20.167C150.772,19.352,152.321,19.352,153.485,20.165C154.649,20.979,155.181,22.433,154.816,23.805C153.971,26.991,152.057,30.534,149.676,33.7C151.563,33.138,153.153,32.57,153.998,32.137C155.353,31.439,157.008,31.734,158.038,32.858C159.069,33.982,159.22,35.656,158.407,36.946C154.431,43.235,147.999,49.092,143.705,52.27C146.024,80.844,129.327,112.771,102.526,130.565C92.584,137.158,76.245,145.057,55.084,145.057ZM21.303,131.241C57.491,146.085,84.895,134.135,98.779,124.917C124.18,108.051,139.809,77.658,136.786,51.006C136.64,49.739,137.221,48.498,138.288,47.8C140.107,46.603,142.887,44.405,145.686,41.68C142.934,42.275,140.263,42.674,138.322,42.681C136.455,42.457,135.299,41.538,134.994,39.942C134.682,38.347,135.552,36.757,137.064,36.161C138.978,35.397,141.561,33.091,143.793,30.264C139.965,31.745,135.826,33.057,132.783,33.497C131.765,33.644,130.736,33.318,129.99,32.611C119.318,22.588,107.253,21.398,94.106,29.067C82.304,35.965,82.041,52.041,83.285,57.119C83.545,58.161,83.294,59.264,82.609,60.09C81.924,60.916,80.887,61.368,79.816,61.306C49.579,59.71,29.939,45.44,18.125,32.279C16.165,37.337,15.852,42.885,17.232,48.132C19.22,55.794,24.225,61.671,28.025,63.889C29.238,64.596,29.887,65.979,29.657,67.363C29.428,68.748,28.366,69.847,26.991,70.124C23.003,70.86,18.888,70.425,15.142,68.873C18.666,82.974,33.328,89.615,37.453,90.075C38.793,90.229,39.915,91.163,40.308,92.453C40.702,93.744,40.292,95.144,39.265,96.02C36.31,98.515,31.887,99.719,26.903,99.469C32.557,107.003,41.321,111.331,51.797,111.561C53.184,111.591,54.412,112.466,54.894,113.767C55.376,115.068,55.014,116.531,53.981,117.458C45.677,124.897,33.76,129.787,21.303,131.241ZM21.303,131.241"/>
</g>
  <g id="Regular-L" transform="matrix(1.0,0.0,0.0,1.0,1369.9752235630579,1439.615243094308)">  <path fill="#000000" stroke-linejoin="miter" stroke-opacity="1" stroke-width="1px" stroke="none" stroke-miterlimit="4" fill-opacity="1" stroke-linecap="butt" fill-rule="nonzero" stroke-dasharray="none" d="M55.084,145.057C40.544,145.057,23.717,141.324,5.106,130.876C3.699,130.084,3.05,128.414,3.551,126.885C4.051,125.357,5.559,124.349,7.155,124.573C19.423,125.979,32.82,123.105,42.829,117.228C31.366,114.536,22.101,107.09,17.212,96.277C16.663,95.067,16.875,93.648,17.753,92.652C18.632,91.651,20.011,91.265,21.283,91.651C22.757,92.104,24.225,92.415,25.638,92.584C16.934,87.39,7.615,77.449,7.615,62.55C7.615,61.248,8.363,60.061,9.538,59.5C10.713,58.938,12.107,59.101,13.12,59.919C14.202,60.798,15.359,61.536,16.556,62.117C13.838,58.429,11.844,54.26,10.679,49.829C8.433,41.159,9.739,32.367,14.446,24.428C15.014,23.474,16.014,22.86,17.121,22.783C18.228,22.706,19.303,23.176,19.998,24.042C29.953,36.479,47.645,51.506,76.089,54.245C75.562,45.244,78.267,30.494,90.697,23.237C105.988,14.31,120.697,15.46,133.337,26.531C138.937,25.286,147.776,21.445,149.609,20.167C150.772,19.352,152.321,19.352,153.485,20.165C154.649,20.979,155.181,22.433,154.816,23.805C153.971,26.991,152.057,30.534,149.676,33.7C151.563,33.138,153.153,32.57,153.998,32.137C155.353,31.439,157.008,31.734,158.038,32.858C159.069,33.982,159.22,35.656,158.407,36.946C154.431,43.235,147.999,49.092,143.705,52.27C146.024,80.844,129.327,112.771,102.526,130.565C92.584,137.158,76.245,145.057,55.084,145.057ZM21.303,131.241C57.491,146.085,84.895,134.135,98.779,124.917C124.18,108.051,139.809,77.658,136.786,51.006C136.64,49.739,137.221,48.498,138.288,47.8C140.107,46.603,142.887,44.405,145.686,41.68C142.934,42.275,140.263,42.674,138.322,42.681C136.455,42.457,135.299,41.538,134.994,39.942C134.682,38.347,135.552,36.757,137.064,36.161C138.978,35.397,141.561,33.091,143.793,30.264C139.965,31.745,135.826,33.057,132.783,33.497C131.765,33.644,130.736,33.318,129.99,32.611C119.318,22.588,107.253,21.398,94.106,29.067C82.304,35.965,82.041,52.041,83.285,57.119C83.545,58.161,83.294,59.264,82.609,60.09C81.924,60.916,80.887,61.368,79.816,61.306C49.579,59.71,29.939,45.44,18.125,32.279C16.165,37.337,15.852,42.885,17.232,48.132C19.22,55.794,24.225,61.671,28.025,63.889C29.238,64.596,29.887,65.979,29.657,67.363C29.428,68.748,28.366,69.847,26.991,70.124C23.003,70.86,18.888,70.425,15.142,68.873C18.666,82.974,33.328,89.615,37.453,90.075C38.793,90.229,39.915,91.163,40.308,92.453C40.702,93.744,40.292,95.144,39.265,96.02C36.31,98.515,31.887,99.719,26.903,99.469C32.557,107.003,41.321,111.331,51.797,111.561C53.184,111.591,54.412,112.466,54.894,113.767C55.376,115.068,55.014,116.531,53.981,117.458C45.677,124.897,33.76,129.787,21.303,131.241ZM21.303,131.241"/>
</g>
  <g id="Light-L" transform="matrix(1.0,0.0,0.0,1.0,1073.265223563058,1439.615243094308)">  <path stroke-linecap="butt" stroke-width="1px" stroke-opacity="1" stroke="none" stroke-linejoin="miter" stroke-miterlimit="4" fill="#000000" fill-rule="nonzero" fill-opacity="1" stroke-dasharray="none" d="M55.084,145.057C40.544,145.057,23.717,141.324,5.106,130.876C3.699,130.084,3.05,128.414,3.551,126.885C4.051,125.357,5.559,124.349,7.155,124.573C19.423,125.979,32.82,123.105,42.829,117.228C31.366,114.536,22.101,107.09,17.212,96.277C16.663,95.067,16.875,93.648,17.753,92.652C18.632,91.651,20.011,91.265,21.283,91.651C22.757,92.104,24.225,92.415,25.638,92.584C16.934,87.39,7.615,77.449,7.615,62.55C7.615,61.248,8.363,60.061,9.538,59.5C10.713,58.938,12.107,59.101,13.12,59.919C14.202,60.798,15.359,61.536,16.556,62.117C13.838,58.429,11.844,54.26,10.679,49.829C8.433,41.159,9.739,32.367,14.446,24.428C15.014,23.474,16.014,22.86,17.121,22.783C18.228,22.706,19.303,23.176,19.998,24.042C29.953,36.479,47.645,51.506,76.089,54.245C75.562,45.244,78.267,30.494,90.697,23.237C105.988,14.31,120.697,15.46,133.337,26.531C138.937,25.286,147.776,21.445,149.609,20.167C150.772,19.352,152.321,19.352,153.485,20.165C154.649,20.979,155.181,22.433,154.816,23.805C153.971,26.991,152.057,30.534,149.676,33.7C151.563,33.138,153.153,32.57,153.998,32.137C155.353,31.439,157.008,31.734,158.038,32.858C159.069,33.982,159.22,35.656,158.407,36.946C154.431,43.235,147.999,49.092,143.705,52.27C146.024,80.844,129.327,112.771,102.526,130.565C92.584,137.158,76.245,145.057,55.084,145.057ZM21.303,131.241C57.491,146.085,84.895,134.135,98.779,124.917C124.18,108.051,139.809,77.658,136.786,51.006C136.64,49.739,137.221,48.498,138.288,47.8C140.107,46.603,142.887,44.405,145.686,41.68C142.934,42.275,140.263,42.674,138.322,42.681C136.455,42.457,135.299,41.538,134.994,39.942C134.682,38.347,135.552,36.757,137.064,36.161C138.978,35.397,141.561,33.091,143.793,30.264C139.965,31.745,135.826,33.057,132.783,33.497C131.765,33.644,130.736,33.318,129.99,32.611C119.318,22.588,107.253,21.398,94.106,29.067C82.304,35.965,82.041,52.041,83.285,57.119C83.545,58.161,83.294,59.264,82.609,60.09C81.924,60.916,80.887,61.368,79.816,61.306C49.579,59.71,29.939,45.44,18.125,32.279C16.165,37.337,15.852,42.885,17.232,48.132C19.22,55.794,24.225,61.671,28.025,63.889C29.238,64.596,29.887,65.979,29.657,67.363C29.428,68.748,28.366,69.847,26.991,70.124C23.003,70.86,18.888,70.425,15.142,68.873C18.666,82.974,33.328,89.615,37.453,90.075C38.793,90.229,39.915,91.163,40.308,92.453C40.702,93.744,40.292,95.144,39.265,96.02C36.31,98.515,31.887,99.719,26.903,99.469C32.557,107.003,41.321,111.331,51.797,111.561C53.184,111.591,54.412,112.466,54.894,113.767C55.376,115.068,55.014,116.531,53.981,117.458C45.677,124.897,33.76,129.787,21.303,131.241ZM21.303,131.241"/>
</g>
  <g id="Thin-L" transform="matrix(1.0,0.0,0.0,1.0,776.5552235630581,1439.615243094308)">  <path stroke-linejoin="miter" stroke-linecap="butt" stroke-width="1px" stroke-opacity="1" stroke-miterlimit="4" stroke-dasharray="none" fill="#000000" fill-opacity="1" fill-rule="nonzero" stroke="none" d="M55.084,145.057C40.544,145.057,23.717,141.324,5.106,130.876C3.699,130.084,3.05,128.414,3.551,126.885C4.051,125.357,5.559,124.349,7.155,124.573C19.423,125.979,32.82,123.105,42.829,117.228C31.366,114.536,22.101,107.09,17.212,96.277C16.663,95.067,16.875,93.648,17.753,92.652C18.632,91.651,20.011,91.265,21.283,91.651C22.757,92.104,24.225,92.415,25.638,92.584C16.934,87.39,7.615,77.449,7.615,62.55C7.615,61.248,8.363,60.061,9.538,59.5C10.713,58.938,12.107,59.101,13.12,59.919C14.202,60.798,15.359,61.536,16.556,62.117C13.838,58.429,11.844,54.26,10.679,49.829C8.433,41.159,9.739,32.367,14.446,24.428C15.014,23.474,16.014,22.86,17.121,22.783C18.228,22.706,19.303,23.176,19.998,24.042C29.953,36.479,47.645,51.506,76.089,54.245C75.562,45.244,78.267,30.494,90.697,23.237C105.988,14.31,120.697,15.46,133.337,26.531C138.937,25.286,147.776,21.445,149.609,20.167C150.772,19.352,152.321,19.352,153.485,20.165C154.649,20.979,155.181,22.433,154.816,23.805C153.971,26.991,152.057,30.534,149.676,33.7C151.563,33.138,153.153,32.57,153.998,32.137C155.353,31.439,157.008,31.734,158.038,32.858C159.069,33.982,159.22,35.656,158.407,36.946C154.431,43.235,147.999,49.092,143.705,52.27C146.024,80.844,129.327,112.771,102.526,130.565C92.584,137.158,76.245,145.057,55.084,145.057ZM21.303,131.241C57.491,146.085,84.895,134.135,98.779,124.917C124.18,108.051,139.809,77.658,136.786,51.006C136.64,49.739,137.221,48.498,138.288,47.8C140.107,46.603,142.887,44.405,145.686,41.68C142.934,42.275,140.263,42.674,138.322,42.681C136.455,42.457,135.299,41.538,134.994,39.942C134.682,38.347,135.552,36.757,137.064,36.161C138.978,35.397,141.561,33.091,143.793,30.264C139.965,31.745,135.826,33.057,132.783,33.497C131.765,33.644,130.736,33.318,129.99,32.611C119.318,22.588,107.253,21.398,94.106,29.067C82.304,35.965,82.041,52.041,83.285,57.119C83.545,58.161,83.294,59.264,82.609,60.09C81.924,60.916,80.887,61.368,79.816,61.306C49.579,59.71,29.939,45.44,18.125,32.279C16.165,37.337,15.852,42.885,17.232,48.132C19.22,55.794,24.225,61.671,28.025,63.889C29.238,64.596,29.887,65.979,29.657,67.363C29.428,68.748,28.366,69.847,26.991,70.124C23.003,70.86,18.888,70.425,15.142,68.873C18.666,82.974,33.328,89.615,37.453,90.075C38.793,90.229,39.915,91.163,40.308,92.453C40.702,93.744,40.292,95.144,39.265,96.02C36.31,98.515,31.887,99.719,26.903,99.469C32.557,107.003,41.321,111.331,51.797,111.561C53.184,111.591,54.412,112.466,54.894,113.767C55.376,115.068,55.014,116.531,53.981,117.458C45.677,124.897,33.76,129.787,21.303,131.241ZM21.303,131.241"/>
</g>
  <g id="Ultralight-L" transform="matrix(1.0,0.0,0.0,1.0,479.845223563058,1439.615243094308)">  <path fill-rule="nonzero" stroke="none" fill-opacity="1" stroke-linejoin="miter" stroke-opacity="1" stroke-linecap="butt" stroke-dasharray="none" stroke-miterlimit="4" stroke-width="1px" fill="#000000" d="M55.084,145.057C40.544,145.057,23.717,141.324,5.106,130.876C3.699,130.084,3.05,128.414,3.551,126.885C4.051,125.357,5.559,124.349,7.155,124.573C19.423,125.979,32.82,123.105,42.829,117.228C31.366,114.536,22.101,107.09,17.212,96.277C16.663,95.067,16.875,93.648,17.753,92.652C18.632,91.651,20.011,91.265,21.283,91.651C22.757,92.104,24.225,92.415,25.638,92.584C16.934,87.39,7.615,77.449,7.615,62.55C7.615,61.248,8.363,60.061,9.538,59.5C10.713,58.938,12.107,59.101,13.12,59.919C14.202,60.798,15.359,61.536,16.556,62.117C13.838,58.429,11.844,54.26,10.679,49.829C8.433,41.159,9.739,32.367,14.446,24.428C15.014,23.474,16.014,22.86,17.121,22.783C18.228,22.706,19.303,23.176,19.998,24.042C29.953,36.479,47.645,51.506,76.089,54.245C75.562,45.244,78.267,30.494,90.697,23.237C105.988,14.31,120.697,15.46,133.337,26.531C138.937,25.286,147.776,21.445,149.609,20.167C150.772,19.352,152.321,19.352,153.485,20.165C154.649,20.979,155.181,22.433,154.816,23.805C153.971,26.991,152.057,30.534,149.676,33.7C151.563,33.138,153.153,32.57,153.998,32.137C155.353,31.439,157.008,31.734,158.038,32.858C159.069,33.982,159.22,35.656,158.407,36.946C154.431,43.235,147.999,49.092,143.705,52.27C146.024,80.844,129.327,112.771,102.526,130.565C92.584,137.158,76.245,145.057,55.084,145.057ZM21.303,131.241C57.491,146.085,84.895,134.135,98.779,124.917C124.18,108.051,139.809,77.658,136.786,51.006C136.64,49.739,137.221,48.498,138.288,47.8C140.107,46.603,142.887,44.405,145.686,41.68C142.934,42.275,140.263,42.674,138.322,42.681C136.455,42.457,135.299,41.538,134.994,39.942C134.682,38.347,135.552,36.757,137.064,36.161C138.978,35.397,141.561,33.091,143.793,30.264C139.965,31.745,135.826,33.057,132.783,33.497C131.765,33.644,130.736,33.318,129.99,32.611C119.318,22.588,107.253,21.398,94.106,29.067C82.304,35.965,82.041,52.041,83.285,57.119C83.545,58.161,83.294,59.264,82.609,60.09C81.924,60.916,80.887,61.368,79.816,61.306C49.579,59.71,29.939,45.44,18.125,32.279C16.165,37.337,15.852,42.885,17.232,48.132C19.22,55.794,24.225,61.671,28.025,63.889C29.238,64.596,29.887,65.979,29.657,67.363C29.428,68.748,28.366,69.847,26.991,70.124C23.003,70.86,18.888,70.425,15.142,68.873C18.666,82.974,33.328,89.615,37.453,90.075C38.793,90.229,39.915,91.163,40.308,92.453C40.702,93.744,40.292,95.144,39.265,96.02C36.31,98.515,31.887,99.719,26.903,99.469C32.557,107.003,41.321,111.331,51.797,111.561C53.184,111.591,54.412,112.466,54.894,113.767C55.376,115.068,55.014,116.531,53.981,117.458C45.677,124.897,33.76,129.787,21.303,131.241ZM21.303,131.241"/>
</g>
  <g id="Black-M" transform="matrix(1.0,0.0,0.0,1.0,2871.7693205915175,1027.859340122768)">  <path stroke-linejoin="miter" stroke-dasharray="none" stroke-width="1px" stroke-linecap="butt" fill="#000000" fill-opacity="1" stroke-opacity="1" stroke-miterlimit="4" stroke="none" fill-rule="nonzero" d="M42.701,112.448C31.429,112.448,18.386,109.554,3.958,101.454C2.868,100.841,2.364,99.546,2.752,98.361C3.14,97.176,4.309,96.395,5.547,96.568C15.057,97.658,25.442,95.43,33.201,90.874C24.315,88.788,17.133,83.016,13.342,74.633C12.917,73.695,13.081,72.596,13.762,71.823C14.443,71.047,15.513,70.748,16.498,71.047C17.641,71.398,18.779,71.64,19.875,71.771C13.127,67.744,5.903,60.038,5.903,48.488C5.903,47.479,6.483,46.559,7.394,46.124C8.305,45.689,9.385,45.815,10.171,46.449C11.009,47.131,11.906,47.702,12.834,48.153C10.727,45.294,9.181,42.062,8.278,38.627C6.537,31.906,7.549,25.091,11.198,18.936C11.639,18.197,12.414,17.721,13.272,17.661C14.13,17.602,14.964,17.966,15.502,18.637C23.219,28.278,36.934,39.927,58.984,42.051C58.575,35.073,60.672,23.639,70.308,18.013C82.161,11.093,93.564,11.984,103.362,20.567C107.703,19.602,114.555,16.624,115.976,15.633C116.878,15.002,118.078,15.001,118.981,15.632C119.883,16.262,120.295,17.39,120.013,18.454C119.357,20.923,117.874,23.67,116.028,26.124C117.491,25.689,118.723,25.248,119.378,24.913C120.429,24.372,121.712,24.6,122.51,25.471C123.309,26.342,123.426,27.64,122.796,28.64C119.714,33.516,114.728,38.056,111.399,40.52C113.197,62.67,100.253,87.42,79.477,101.213C71.771,106.324,59.105,112.448,42.701,112.448ZM16.514,101.737C44.567,113.244,65.81,103.981,76.573,96.835C96.264,83.76,108.379,60.2,106.036,39.539C105.922,38.558,106.373,37.596,107.2,37.054C108.61,36.126,110.765,34.423,112.935,32.31C110.801,32.771,108.731,33.081,107.226,33.086C105.779,32.913,104.883,32.2,104.647,30.963C104.405,29.727,105.079,28.494,106.251,28.032C107.735,27.44,109.737,25.652,111.467,23.46C108.5,24.609,105.292,25.626,102.932,25.966C102.144,26.081,101.346,25.828,100.767,25.28C92.494,17.51,83.142,16.587,72.95,22.533C63.802,27.88,63.597,40.341,64.562,44.279C64.764,45.086,64.569,45.941,64.038,46.581C63.507,47.222,62.703,47.572,61.873,47.524C38.433,46.287,23.209,35.225,14.05,25.023C12.531,28.944,12.289,33.244,13.358,37.311C14.899,43.251,18.779,47.807,21.725,49.526C22.665,50.075,23.168,51.146,22.99,52.22C22.812,53.293,21.99,54.145,20.923,54.36C17.832,54.93,14.642,54.593,11.738,53.39C14.469,64.321,25.835,69.469,29.033,69.826C30.072,69.945,30.942,70.669,31.247,71.669C31.552,72.669,31.234,73.755,30.438,74.434C28.147,76.368,24.719,77.301,20.855,77.108C25.238,82.948,32.032,86.303,40.153,86.481C41.228,86.505,42.18,87.183,42.553,88.191C42.927,89.2,42.647,90.334,41.846,91.053C35.408,96.82,26.171,100.61,16.514,101.737ZM16.514,101.737"/>
</g>
  <g id="Heavy-M" transform="matrix(1.0,0.0,0.0,1.0,2575.0593205915175,1027.859340122768)">  <path stroke-width="1px" fill-rule="nonzero" stroke-opacity="1" stroke-linecap="butt" stroke="none" stroke-dasharray="none" stroke-miterlimit="4" fill-opacity="1" fill="#000000" stroke-linejoin="miter" d="M42.701,112.448C31.429,112.448,18.386,109.554,3.958,101.454C2.868,100.841,2.364,99.546,2.752,98.361C3.14,97.176,4.309,96.395,5.547,96.568C15.057,97.658,25.442,95.43,33.201,90.874C24.315,88.788,17.133,83.016,13.342,74.633C12.917,73.695,13.081,72.596,13.762,71.823C14.443,71.047,15.513,70.748,16.498,71.047C17.641,71.398,18.779,71.64,19.875,71.771C13.127,67.744,5.903,60.038,5.903,48.488C5.903,47.479,6.483,46.559,7.394,46.124C8.305,45.689,9.385,45.815,10.171,46.449C11.009,47.131,11.906,47.702,12.834,48.153C10.727,45.294,9.181,42.062,8.278,38.627C6.537,31.906,7.549,25.091,11.198,18.936C11.639,18.197,12.414,17.721,13.272,17.661C14.13,17.602,14.964,17.966,15.502,18.637C23.219,28.278,36.934,39.927,58.984,42.051C58.575,35.073,60.672,23.639,70.308,18.013C82.161,11.093,93.564,11.984,103.362,20.567C107.703,19.602,114.555,16.624,115.976,15.633C116.878,15.002,118.078,15.001,118.981,15.632C119.883,16.262,120.295,17.39,120.013,18.454C119.357,20.923,117.874,23.67,116.028,26.124C117.491,25.689,118.723,25.248,119.378,24.913C120.429,24.372,121.712,24.6,122.51,25.471C123.309,26.342,123.426,27.64,122.796,28.64C119.714,33.516,114.728,38.056,111.399,40.52C113.197,62.67,100.253,87.42,79.477,101.213C71.771,106.324,59.105,112.448,42.701,112.448ZM16.514,101.737C44.567,113.244,65.81,103.981,76.573,96.835C96.264,83.76,108.379,60.2,106.036,39.539C105.922,38.558,106.373,37.596,107.2,37.054C108.61,36.126,110.765,34.423,112.935,32.31C110.801,32.771,108.731,33.081,107.226,33.086C105.779,32.913,104.883,32.2,104.647,30.963C104.405,29.727,105.079,28.494,106.251,28.032C107.735,27.44,109.737,25.652,111.467,23.46C108.5,24.609,105.292,25.626,102.932,25.966C102.144,26.081,101.346,25.828,100.767,25.28C92.494,17.51,83.142,16.587,72.95,22.533C63.802,27.88,63.597,40.341,64.562,44.279C64.764,45.086,64.569,45.941,64.038,46.581C63.507,47.222,62.703,47.572,61.873,47.524C38.433,46.287,23.209,35.225,14.05,25.023C12.531,28.944,12.289,33.244,13.358,37.311C14.899,43.251,18.779,47.807,21.725,49.526C22.665,50.075,23.168,51.146,22.99,52.22C22.812,53.293,21.99,54.145,20.923,54.36C17.832,54.93,14.642,54.593,11.738,53.39C14.469,64.321,25.835,69.469,29.033,69.826C30.072,69.945,30.942,70.669,31.247,71.669C31.552,72.669,31.234,73.755,30.438,74.434C28.147,76.368,24.719,77.301,20.855,77.108C25.238,82.948,32.032,86.303,40.153,86.481C41.228,86.505,42.18,87.183,42.553,88.191C42.927,89.2,42.647,90.334,41.846,91.053C35.408,96.82,26.171,100.61,16.514,101.737ZM16.514,101.737"/>
</g>
  <g id="Bold-M" transform="matrix(1.0,0.0,0.0,1.0,2278.3493205915174,1027.859340122768)">  <path fill-opacity="1" stroke-linejoin="miter" stroke-dasharray="none" stroke-width="1px" stroke="none" fill-rule="nonzero" stroke-miterlimit="4" stroke-linecap="butt" fill="#000000" stroke-opacity="1" d="M42.701,112.448C31.429,112.448,18.386,109.554,3.958,101.454C2.868,100.841,2.364,99.546,2.752,98.361C3.14,97.176,4.309,96.395,5.547,96.568C15.057,97.658,25.442,95.43,33.201,90.874C24.315,88.788,17.133,83.016,13.342,74.633C12.917,73.695,13.081,72.596,13.762,71.823C14.443,71.047,15.513,70.748,16.498,71.047C17.641,71.398,18.779,71.64,19.875,71.771C13.127,67.744,5.903,60.038,5.903,48.488C5.903,47.479,6.483,46.559,7.394,46.124C8.305,45.689,9.385,45.815,10.171,46.449C11.009,47.131,11.906,47.702,12.834,48.153C10.727,45.294,9.181,42.062,8.278,38.627C6.537,31.906,7.549,25.091,11.198,18.936C11.639,18.197,12.414,17.721,13.272,17.661C14.13,17.602,14.964,17.966,15.502,18.637C23.219,28.278,36.934,39.927,58.984,42.051C58.575,35.073,60.672,23.639,70.308,18.013C82.161,11.093,93.564,11.984,103.362,20.567C107.703,19.602,114.555,16.624,115.976,15.633C116.878,15.002,118.078,15.001,118.981,15.632C119.883,16.262,120.295,17.39,120.013,18.454C119.357,20.923,117.874,23.67,116.028,26.124C117.491,25.689,118.723,25.248,119.378,24.913C120.429,24.372,121.712,24.6,122.51,25.471C123.309,26.342,123.426,27.64,122.796,28.64C119.714,33.516,114.728,38.056,111.399,40.52C113.197,62.67,100.253,87.42,79.477,101.213C71.771,106.324,59.105,112.448,42.701,112.448ZM16.514,101.737C44.567,113.244,65.81,103.981,76.573,96.835C96.264,83.76,108.379,60.2,106.036,39.539C105.922,38.558,106.373,37.596,107.2,37.054C108.61,36.126,110.765,34.423,112.935,32.31C110.801,32.771,108.731,33.081,107.226,33.086C105.779,32.913,104.883,32.2,104.647,30.963C104.405,29.727,105.079,28.494,106.251,28.032C107.735,27.44,109.737,25.652,111.467,23.46C108.5,24.609,105.292,25.626,102.932,25.966C102.144,26.081,101.346,25.828,100.767,25.28C92.494,17.51,83.142,16.587,72.95,22.533C63.802,27.88,63.597,40.341,64.562,44.279C64.764,45.086,64.569,45.941,64.038,46.581C63.507,47.222,62.703,47.572,61.873,47.524C38.433,46.287,23.209,35.225,14.05,25.023C12.531,28.944,12.289,33.244,13.358,37.311C14.899,43.251,18.779,47.807,21.725,49.526C22.665,50.075,23.168,51.146,22.99,52.22C22.812,53.293,21.99,54.145,20.923,54.36C17.832,54.93,14.642,54.593,11.738,53.39C14.469,64.321,25.835,69.469,29.033,69.826C30.072,69.945,30.942,70.669,31.247,71.669C31.552,72.669,31.234,73.755,30.438,74.434C28.147,76.368,24.719,77.301,20.855,77.108C25.238,82.948,32.032,86.303,40.153,86.481C41.228,86.505,42.18,87.183,42.553,88.191C42.927,89.2,42.647,90.334,41.846,91.053C35.408,96.82,26.171,100.61,16.514,101.737ZM16.514,101.737"/>
</g>
  <g id="Semibold-M" transform="matrix(1.0,0.0,0.0,1.0,1981.6393205915178,1027.859340122768)">  <path fill-rule="nonzero" stroke-opacity="1" stroke="none" stroke-dasharray="none" stroke-miterlimit="4" fill="#000000" fill-opacity="1" stroke-linecap="butt" stroke-linejoin="miter" stroke-width="1px" d="M42.701,112.448C31.429,112.448,18.386,109.554,3.958,101.454C2.868,100.841,2.364,99.546,2.752,98.361C3.14,97.176,4.309,96.395,5.547,96.568C15.057,97.658,25.442,95.43,33.201,90.874C24.315,88.788,17.133,83.016,13.342,74.633C12.917,73.695,13.081,72.596,13.762,71.823C14.443,71.047,15.513,70.748,16.498,71.047C17.641,71.398,18.779,71.64,19.875,71.771C13.127,67.744,5.903,60.038,5.903,48.488C5.903,47.479,6.483,46.559,7.394,46.124C8.305,45.689,9.385,45.815,10.171,46.449C11.009,47.131,11.906,47.702,12.834,48.153C10.727,45.294,9.181,42.062,8.278,38.627C6.537,31.906,7.549,25.091,11.198,18.936C11.639,18.197,12.414,17.721,13.272,17.661C14.13,17.602,14.964,17.966,15.502,18.637C23.219,28.278,36.934,39.927,58.984,42.051C58.575,35.073,60.672,23.639,70.308,18.013C82.161,11.093,93.564,11.984,103.362,20.567C107.703,19.602,114.555,16.624,115.976,15.633C116.878,15.002,118.078,15.001,118.981,15.632C119.883,16.262,120.295,17.39,120.013,18.454C119.357,20.923,117.874,23.67,116.028,26.124C117.491,25.689,118.723,25.248,119.378,24.913C120.429,24.372,121.712,24.6,122.51,25.471C123.309,26.342,123.426,27.64,122.796,28.64C119.714,33.516,114.728,38.056,111.399,40.52C113.197,62.67,100.253,87.42,79.477,101.213C71.771,106.324,59.105,112.448,42.701,112.448ZM16.514,101.737C44.567,113.244,65.81,103.981,76.573,96.835C96.264,83.76,108.379,60.2,106.036,39.539C105.922,38.558,106.373,37.596,107.2,37.054C108.61,36.126,110.765,34.423,112.935,32.31C110.801,32.771,108.731,33.081,107.226,33.086C105.779,32.913,104.883,32.2,104.647,30.963C104.405,29.727,105.079,28.494,106.251,28.032C107.735,27.44,109.737,25.652,111.467,23.46C108.5,24.609,105.292,25.626,102.932,25.966C102.144,26.081,101.346,25.828,100.767,25.28C92.494,17.51,83.142,16.587,72.95,22.533C63.802,27.88,63.597,40.341,64.562,44.279C64.764,45.086,64.569,45.941,64.038,46.581C63.507,47.222,62.703,47.572,61.873,47.524C38.433,46.287,23.209,35.225,14.05,25.023C12.531,28.944,12.289,33.244,13.358,37.311C14.899,43.251,18.779,47.807,21.725,49.526C22.665,50.075,23.168,51.146,22.99,52.22C22.812,53.293,21.99,54.145,20.923,54.36C17.832,54.93,14.642,54.593,11.738,53.39C14.469,64.321,25.835,69.469,29.033,69.826C30.072,69.945,30.942,70.669,31.247,71.669C31.552,72.669,31.234,73.755,30.438,74.434C28.147,76.368,24.719,77.301,20.855,77.108C25.238,82.948,32.032,86.303,40.153,86.481C41.228,86.505,42.18,87.183,42.553,88.191C42.927,89.2,42.647,90.334,41.846,91.053C35.408,96.82,26.171,100.61,16.514,101.737ZM16.514,101.737"/>
</g>
  <g id="Medium-M" transform="matrix(1.0,0.0,0.0,1.0,1684.9293205915178,1027.859340122768)">  <path fill="#000000" stroke-dasharray="none" fill-rule="nonzero" stroke-linecap="butt" stroke-width="1px" stroke-opacity="1" stroke-linejoin="miter" stroke-miterlimit="4" fill-opacity="1" stroke="none" d="M42.701,112.448C31.429,112.448,18.386,109.554,3.958,101.454C2.868,100.841,2.364,99.546,2.752,98.361C3.14,97.176,4.309,96.395,5.547,96.568C15.057,97.658,25.442,95.43,33.201,90.874C24.315,88.788,17.133,83.016,13.342,74.633C12.917,73.695,13.081,72.596,13.762,71.823C14.443,71.047,15.513,70.748,16.498,71.047C17.641,71.398,18.779,71.64,19.875,71.771C13.127,67.744,5.903,60.038,5.903,48.488C5.903,47.479,6.483,46.559,7.394,46.124C8.305,45.689,9.385,45.815,10.171,46.449C11.009,47.131,11.906,47.702,12.834,48.153C10.727,45.294,9.181,42.062,8.278,38.627C6.537,31.906,7.549,25.091,11.198,18.936C11.639,18.197,12.414,17.721,13.272,17.661C14.13,17.602,14.964,17.966,15.502,18.637C23.219,28.278,36.934,39.927,58.984,42.051C58.575,35.073,60.672,23.639,70.308,18.013C82.161,11.093,93.564,11.984,103.362,20.567C107.703,19.602,114.555,16.624,115.976,15.633C116.878,15.002,118.078,15.001,118.981,15.632C119.883,16.262,120.295,17.39,120.013,18.454C119.357,20.923,117.874,23.67,116.028,26.124C117.491,25.689,118.723,25.248,119.378,24.913C120.429,24.372,121.712,24.6,122.51,25.471C123.309,26.342,123.426,27.64,122.796,28.64C119.714,33.516,114.728,38.056,111.399,40.52C113.197,62.67,100.253,87.42,79.477,101.213C71.771,106.324,59.105,112.448,42.701,112.448ZM16.514,101.737C44.567,113.244,65.81,103.981,76.573,96.835C96.264,83.76,108.379,60.2,106.036,39.539C105.922,38.558,106.373,37.596,107.2,37.054C108.61,36.126,110.765,34.423,112.935,32.31C110.801,32.771,108.731,33.081,107.226,33.086C105.779,32.913,104.883,32.2,104.647,30.963C104.405,29.727,105.079,28.494,106.251,28.032C107.735,27.44,109.737,25.652,111.467,23.46C108.5,24.609,105.292,25.626,102.932,25.966C102.144,26.081,101.346,25.828,100.767,25.28C92.494,17.51,83.142,16.587,72.95,22.533C63.802,27.88,63.597,40.341,64.562,44.279C64.764,45.086,64.569,45.941,64.038,46.581C63.507,47.222,62.703,47.572,61.873,47.524C38.433,46.287,23.209,35.225,14.05,25.023C12.531,28.944,12.289,33.244,13.358,37.311C14.899,43.251,18.779,47.807,21.725,49.526C22.665,50.075,23.168,51.146,22.99,52.22C22.812,53.293,21.99,54.145,20.923,54.36C17.832,54.93,14.642,54.593,11.738,53.39C14.469,64.321,25.835,69.469,29.033,69.826C30.072,69.945,30.942,70.669,31.247,71.669C31.552,72.669,31.234,73.755,30.438,74.434C28.147,76.368,24.719,77.301,20.855,77.108C25.238,82.948,32.032,86.303,40.153,86.481C41.228,86.505,42.18,87.183,42.553,88.191C42.927,89.2,42.647,90.334,41.846,91.053C35.408,96.82,26.171,100.61,16.514,101.737ZM16.514,101.737"/>
</g>
  <g id="Regular-M" transform="matrix(1.0,0.0,0.0,1.0,1388.2193205915178,1027.859340122768)">  <path fill="#000000" stroke-linejoin="miter" stroke-opacity="1" stroke-width="1px" stroke="none" stroke-miterlimit="4" fill-opacity="1" stroke-linecap="butt" fill-rule="nonzero" stroke-dasharray="none" d="M42.701,112.448C31.429,112.448,18.386,109.554,3.958,101.454C2.868,100.841,2.364,99.546,2.752,98.361C3.14,97.176,4.309,96.395,5.547,96.568C15.057,97.658,25.442,95.43,33.201,90.874C24.315,88.788,17.133,83.016,13.342,74.633C12.917,73.695,13.081,72.596,13.762,71.823C14.443,71.047,15.513,70.748,16.498,71.047C17.641,71.398,18.779,71.64,19.875,71.771C13.127,67.744,5.903,60.038,5.903,48.488C5.903,47.479,6.483,46.559,7.394,46.124C8.305,45.689,9.385,45.815,10.171,46.449C11.009,47.131,11.906,47.702,12.834,48.153C10.727,45.294,9.181,42.062,8.278,38.627C6.537,31.906,7.549,25.091,11.198,18.936C11.639,18.197,12.414,17.721,13.272,17.661C14.13,17.602,14.964,17.966,15.502,18.637C23.219,28.278,36.934,39.927,58.984,42.051C58.575,35.073,60.672,23.639,70.308,18.013C82.161,11.093,93.564,11.984,103.362,20.567C107.703,19.602,114.555,16.624,115.976,15.633C116.878,15.002,118.078,15.001,118.981,15.632C119.883,16.262,120.295,17.39,120.013,18.454C119.357,20.923,117.874,23.67,116.028,26.124C117.491,25.689,118.723,25.248,119.378,24.913C120.429,24.372,121.712,24.6,122.51,25.471C123.309,26.342,123.426,27.64,122.796,28.64C119.714,33.516,114.728,38.056,111.399,40.52C113.197,62.67,100.253,87.42,79.477,101.213C71.771,106.324,59.105,112.448,42.701,112.448ZM16.514,101.737C44.567,113.244,65.81,103.981,76.573,96.835C96.264,83.76,108.379,60.2,106.036,39.539C105.922,38.558,106.373,37.596,107.2,37.054C108.61,36.126,110.765,34.423,112.935,32.31C110.801,32.771,108.731,33.081,107.226,33.086C105.779,32.913,104.883,32.2,104.647,30.963C104.405,29.727,105.079,28.494,106.251,28.032C107.735,27.44,109.737,25.652,111.467,23.46C108.5,24.609,105.292,25.626,102.932,25.966C102.144,26.081,101.346,25.828,100.767,25.28C92.494,17.51,83.142,16.587,72.95,22.533C63.802,27.88,63.597,40.341,64.562,44.279C64.764,45.086,64.569,45.941,64.038,46.581C63.507,47.222,62.703,47.572,61.873,47.524C38.433,46.287,23.209,35.225,14.05,25.023C12.531,28.944,12.289,33.244,13.358,37.311C14.899,43.251,18.779,47.807,21.725,49.526C22.665,50.075,23.168,51.146,22.99,52.22C22.812,53.293,21.99,54.145,20.923,54.36C17.832,54.93,14.642,54.593,11.738,53.39C14.469,64.321,25.835,69.469,29.033,69.826C30.072,69.945,30.942,70.669,31.247,71.669C31.552,72.669,31.234,73.755,30.438,74.434C28.147,76.368,24.719,77.301,20.855,77.108C25.238,82.948,32.032,86.303,40.153,86.481C41.228,86.505,42.18,87.183,42.553,88.191C42.927,89.2,42.647,90.334,41.846,91.053C35.408,96.82,26.171,100.61,16.514,101.737ZM16.514,101.737"/>
</g>
  <g id="Light-M" transform="matrix(1.0,0.0,0.0,1.0,1091.509320591518,1027.859340122768)">  <path stroke-linecap="butt" stroke-width="1px" stroke-opacity="1" stroke="none" stroke-linejoin="miter" stroke-miterlimit="4" fill="#000000" fill-rule="nonzero" fill-opacity="1" stroke-dasharray="none" d="M42.701,112.448C31.429,112.448,18.386,109.554,3.958,101.454C2.868,100.841,2.364,99.546,2.752,98.361C3.14,97.176,4.309,96.395,5.547,96.568C15.057,97.658,25.442,95.43,33.201,90.874C24.315,88.788,17.133,83.016,13.342,74.633C12.917,73.695,13.081,72.596,13.762,71.823C14.443,71.047,15.513,70.748,16.498,71.047C17.641,71.398,18.779,71.64,19.875,71.771C13.127,67.744,5.903,60.038,5.903,48.488C5.903,47.479,6.483,46.559,7.394,46.124C8.305,45.689,9.385,45.815,10.171,46.449C11.009,47.131,11.906,47.702,12.834,48.153C10.727,45.294,9.181,42.062,8.278,38.627C6.537,31.906,7.549,25.091,11.198,18.936C11.639,18.197,12.414,17.721,13.272,17.661C14.13,17.602,14.964,17.966,15.502,18.637C23.219,28.278,36.934,39.927,58.984,42.051C58.575,35.073,60.672,23.639,70.308,18.013C82.161,11.093,93.564,11.984,103.362,20.567C107.703,19.602,114.555,16.624,115.976,15.633C116.878,15.002,118.078,15.001,118.981,15.632C119.883,16.262,120.295,17.39,120.013,18.454C119.357,20.923,117.874,23.67,116.028,26.124C117.491,25.689,118.723,25.248,119.378,24.913C120.429,24.372,121.712,24.6,122.51,25.471C123.309,26.342,123.426,27.64,122.796,28.64C119.714,33.516,114.728,38.056,111.399,40.52C113.197,62.67,100.253,87.42,79.477,101.213C71.771,106.324,59.105,112.448,42.701,112.448ZM16.514,101.737C44.567,113.244,65.81,103.981,76.573,96.835C96.264,83.76,108.379,60.2,106.036,39.539C105.922,38.558,106.373,37.596,107.2,37.054C108.61,36.126,110.765,34.423,112.935,32.31C110.801,32.771,108.731,33.081,107.226,33.086C105.779,32.913,104.883,32.2,104.647,30.963C104.405,29.727,105.079,28.494,106.251,28.032C107.735,27.44,109.737,25.652,111.467,23.46C108.5,24.609,105.292,25.626,102.932,25.966C102.144,26.081,101.346,25.828,100.767,25.28C92.494,17.51,83.142,16.587,72.95,22.533C63.802,27.88,63.597,40.341,64.562,44.279C64.764,45.086,64.569,45.941,64.038,46.581C63.507,47.222,62.703,47.572,61.873,47.524C38.433,46.287,23.209,35.225,14.05,25.023C12.531,28.944,12.289,33.244,13.358,37.311C14.899,43.251,18.779,47.807,21.725,49.526C22.665,50.075,23.168,51.146,22.99,52.22C22.812,53.293,21.99,54.145,20.923,54.36C17.832,54.93,14.642,54.593,11.738,53.39C14.469,64.321,25.835,69.469,29.033,69.826C30.072,69.945,30.942,70.669,31.247,71.669C31.552,72.669,31.234,73.755,30.438,74.434C28.147,76.368,24.719,77.301,20.855,77.108C25.238,82.948,32.032,86.303,40.153,86.481C41.228,86.505,42.18,87.183,42.553,88.191C42.927,89.2,42.647,90.334,41.846,91.053C35.408,96.82,26.171,100.61,16.514,101.737ZM16.514,101.737"/>
</g>
  <g id="Thin-M" transform="matrix(1.0,0.0,0.0,1.0,794.7993205915179,1027.859340122768)">  <path stroke-linejoin="miter" stroke-linecap="butt" stroke-width="1px" stroke-opacity="1" stroke-miterlimit="4" stroke-dasharray="none" fill="#000000" fill-opacity="1" fill-rule="nonzero" stroke="none" d="M42.701,112.448C31.429,112.448,18.386,109.554,3.958,101.454C2.868,100.841,2.364,99.546,2.752,98.361C3.14,97.176,4.309,96.395,5.547,96.568C15.057,97.658,25.442,95.43,33.201,90.874C24.315,88.788,17.133,83.016,13.342,74.633C12.917,73.695,13.081,72.596,13.762,71.823C14.443,71.047,15.513,70.748,16.498,71.047C17.641,71.398,18.779,71.64,19.875,71.771C13.127,67.744,5.903,60.038,5.903,48.488C5.903,47.479,6.483,46.559,7.394,46.124C8.305,45.689,9.385,45.815,10.171,46.449C11.009,47.131,11.906,47.702,12.834,48.153C10.727,45.294,9.181,42.062,8.278,38.627C6.537,31.906,7.549,25.091,11.198,18.936C11.639,18.197,12.414,17.721,13.272,17.661C14.13,17.602,14.964,17.966,15.502,18.637C23.219,28.278,36.934,39.927,58.984,42.051C58.575,35.073,60.672,23.639,70.308,18.013C82.161,11.093,93.564,11.984,103.362,20.567C107.703,19.602,114.555,16.624,115.976,15.633C116.878,15.002,118.078,15.001,118.981,15.632C119.883,16.262,120.295,17.39,120.013,18.454C119.357,20.923,117.874,23.67,116.028,26.124C117.491,25.689,118.723,25.248,119.378,24.913C120.429,24.372,121.712,24.6,122.51,25.471C123.309,26.342,123.426,27.64,122.796,28.64C119.714,33.516,114.728,38.056,111.399,40.52C113.197,62.67,100.253,87.42,79.477,101.213C71.771,106.324,59.105,112.448,42.701,112.448ZM16.514,101.737C44.567,113.244,65.81,103.981,76.573,96.835C96.264,83.76,108.379,60.2,106.036,39.539C105.922,38.558,106.373,37.596,107.2,37.054C108.61,36.126,110.765,34.423,112.935,32.31C110.801,32.771,108.731,33.081,107.226,33.086C105.779,32.913,104.883,32.2,104.647,30.963C104.405,29.727,105.079,28.494,106.251,28.032C107.735,27.44,109.737,25.652,111.467,23.46C108.5,24.609,105.292,25.626,102.932,25.966C102.144,26.081,101.346,25.828,100.767,25.28C92.494,17.51,83.142,16.587,72.95,22.533C63.802,27.88,63.597,40.341,64.562,44.279C64.764,45.086,64.569,45.941,64.038,46.581C63.507,47.222,62.703,47.572,61.873,47.524C38.433,46.287,23.209,35.225,14.05,25.023C12.531,28.944,12.289,33.244,13.358,37.311C14.899,43.251,18.779,47.807,21.725,49.526C22.665,50.075,23.168,51.146,22.99,52.22C22.812,53.293,21.99,54.145,20.923,54.36C17.832,54.93,14.642,54.593,11.738,53.39C14.469,64.321,25.835,69.469,29.033,69.826C30.072,69.945,30.942,70.669,31.247,71.669C31.552,72.669,31.234,73.755,30.438,74.434C28.147,76.368,24.719,77.301,20.855,77.108C25.238,82.948,32.032,86.303,40.153,86.481C41.228,86.505,42.18,87.183,42.553,88.191C42.927,89.2,42.647,90.334,41.846,91.053C35.408,96.82,26.171,100.61,16.514,101.737ZM16.514,101.737"/>
</g>
  <g id="Ultralight-M" transform="matrix(1.0,0.0,0.0,1.0,498.0893205915179,1027.859340122768)">  <path fill-rule="nonzero" stroke="none" fill-opacity="1" stroke-linejoin="miter" stroke-opacity="1" stroke-linecap="butt" stroke-dasharray="none" stroke-miterlimit="4" stroke-width="1px" fill="#000000" d="M42.701,112.448C31.429,112.448,18.386,109.554,3.958,101.454C2.868,100.841,2.364,99.546,2.752,98.361C3.14,97.176,4.309,96.395,5.547,96.568C15.057,97.658,25.442,95.43,33.201,90.874C24.315,88.788,17.133,83.016,13.342,74.633C12.917,73.695,13.081,72.596,13.762,71.823C14.443,71.047,15.513,70.748,16.498,71.047C17.641,71.398,18.779,71.64,19.875,71.771C13.127,67.744,5.903,60.038,5.903,48.488C5.903,47.479,6.483,46.559,7.394,46.124C8.305,45.689,9.385,45.815,10.171,46.449C11.009,47.131,11.906,47.702,12.834,48.153C10.727,45.294,9.181,42.062,8.278,38.627C6.537,31.906,7.549,25.091,11.198,18.936C11.639,18.197,12.414,17.721,13.272,17.661C14.13,17.602,14.964,17.966,15.502,18.637C23.219,28.278,36.934,39.927,58.984,42.051C58.575,35.073,60.672,23.639,70.308,18.013C82.161,11.093,93.564,11.984,103.362,20.567C107.703,19.602,114.555,16.624,115.976,15.633C116.878,15.002,118.078,15.001,118.981,15.632C119.883,16.262,120.295,17.39,120.013,18.454C119.357,20.923,117.874,23.67,116.028,26.124C117.491,25.689,118.723,25.248,119.378,24.913C120.429,24.372,121.712,24.6,122.51,25.471C123.309,26.342,123.426,27.64,122.796,28.64C119.714,33.516,114.728,38.056,111.399,40.52C113.197,62.67,100.253,87.42,79.477,101.213C71.771,106.324,59.105,112.448,42.701,112.448ZM16.514,101.737C44.567,113.244,65.81,103.981,76.573,96.835C96.264,83.76,108.379,60.2,106.036,39.539C105.922,38.558,106.373,37.596,107.2,37.054C108.61,36.126,110.765,34.423,112.935,32.31C110.801,32.771,108.731,33.081,107.226,33.086C105.779,32.913,104.883,32.2,104.647,30.963C104.405,29.727,105.079,28.494,106.251,28.032C107.735,27.44,109.737,25.652,111.467,23.46C108.5,24.609,105.292,25.626,102.932,25.966C102.144,26.081,101.346,25.828,100.767,25.28C92.494,17.51,83.142,16.587,72.95,22.533C63.802,27.88,63.597,40.341,64.562,44.279C64.764,45.086,64.569,45.941,64.038,46.581C63.507,47.222,62.703,47.572,61.873,47.524C38.433,46.287,23.209,35.225,14.05,25.023C12.531,28.944,12.289,33.244,13.358,37.311C14.899,43.251,18.779,47.807,21.725,49.526C22.665,50.075,23.168,51.146,22.99,52.22C22.812,53.293,21.99,54.145,20.923,54.36C17.832,54.93,14.642,54.593,11.738,53.39C14.469,64.321,25.835,69.469,29.033,69.826C30.072,69.945,30.942,70.669,31.247,71.669C31.552,72.669,31.234,73.755,30.438,74.434C28.147,76.368,24.719,77.301,20.855,77.108C25.238,82.948,32.032,86.303,40.153,86.481C41.228,86.505,42.18,87.183,42.553,88.191C42.927,89.2,42.647,90.334,41.846,91.053C35.408,96.82,26.171,100.61,16.514,101.737ZM16.514,101.737"/>
</g>
  <g id="Black-S" transform="matrix(1.0,0.0,0.0,1.0,2885.420938023158,611.5109575544085)">  <path stroke-linejoin="miter" stroke-dasharray="none" stroke-width="1px" stroke-linecap="butt" fill="#000000" fill-opacity="1" stroke-opacity="1" stroke-miterlimit="4" stroke="none" fill-rule="nonzero" d="M33.435,88.046C24.609,88.046,14.396,85.781,3.099,79.438C2.245,78.958,1.851,77.944,2.155,77.017C2.459,76.089,3.374,75.477,4.343,75.613C11.789,76.466,19.921,74.722,25.996,71.155C19.039,69.521,13.415,65.001,10.447,58.438C10.114,57.704,10.243,56.842,10.775,56.237C11.309,55.63,12.146,55.396,12.918,55.63C13.813,55.905,14.704,56.094,15.562,56.196C10.279,53.044,4.622,47.01,4.622,37.966C4.622,37.176,5.076,36.456,5.79,36.115C6.503,35.774,7.348,35.873,7.964,36.37C8.62,36.903,9.322,37.351,10.049,37.704C8.399,35.465,7.189,32.934,6.482,30.245C5.119,24.983,5.911,19.646,8.768,14.827C9.113,14.248,9.72,13.875,10.392,13.829C11.064,13.782,11.717,14.068,12.138,14.593C18.181,22.142,28.919,31.263,46.184,32.926C45.864,27.462,47.506,18.509,55.051,14.105C64.332,8.686,73.261,9.384,80.933,16.104C84.332,15.348,89.697,13.017,90.809,12.241C91.515,11.746,92.455,11.746,93.162,12.24C93.868,12.733,94.191,13.616,93.97,14.449C93.457,16.383,92.295,18.534,90.85,20.455C91.995,20.114,92.96,19.769,93.473,19.507C94.296,19.083,95.3,19.262,95.926,19.944C96.551,20.626,96.643,21.642,96.15,22.425C93.736,26.243,89.832,29.798,87.225,31.727C88.633,49.07,78.498,68.45,62.231,79.25C56.196,83.252,46.279,88.046,33.435,88.046ZM12.931,79.66C34.896,88.67,51.529,81.417,59.956,75.822C75.375,65.584,84.861,47.137,83.026,30.959C82.937,30.191,83.29,29.437,83.937,29.014C85.042,28.287,86.729,26.953,88.428,25.299C86.758,25.66,85.136,25.902,83.958,25.906C82.825,25.771,82.123,25.212,81.938,24.244C81.749,23.276,82.277,22.311,83.194,21.949C84.356,21.485,85.924,20.085,87.279,18.37C84.955,19.269,82.443,20.065,80.596,20.332C79.978,20.421,79.354,20.223,78.901,19.794C72.423,13.71,65.1,12.988,57.12,17.643C49.957,21.83,49.797,31.587,50.552,34.67C50.71,35.302,50.558,35.972,50.142,36.473C49.726,36.975,49.097,37.249,48.446,37.211C30.093,36.242,18.172,27.581,11.001,19.593C9.812,22.663,9.622,26.03,10.459,29.215C11.666,33.866,14.704,37.433,17.011,38.779C17.747,39.208,18.141,40.048,18.001,40.888C17.862,41.728,17.218,42.395,16.383,42.564C13.962,43.01,11.465,42.746,9.191,41.805C11.33,50.363,20.229,54.394,22.733,54.673C23.547,54.767,24.227,55.334,24.466,56.117C24.705,56.9,24.456,57.75,23.833,58.282C22.039,59.796,19.355,60.527,16.329,60.375C19.761,64.948,25.081,67.575,31.44,67.715C32.282,67.733,33.027,68.264,33.319,69.054C33.612,69.844,33.392,70.732,32.765,71.294C27.725,75.81,20.492,78.778,12.931,79.66ZM12.931,79.66"/>
</g>
  <g id="Heavy-S" transform="matrix(1.0,0.0,0.0,1.0,2588.710938023158,611.5109575544085)">  <path stroke-width="1px" fill-rule="nonzero" stroke-opacity="1" stroke-linecap="butt" stroke="none" stroke-dasharray="none" stroke-miterlimit="4" fill-opacity="1" fill="#000000" stroke-linejoin="miter" d="M33.435,88.046C24.609,88.046,14.396,85.781,3.099,79.438C2.245,78.958,1.851,77.944,2.155,77.017C2.459,76.089,3.374,75.477,4.343,75.613C11.789,76.466,19.921,74.722,25.996,71.155C19.039,69.521,13.415,65.001,10.447,58.438C10.114,57.704,10.243,56.842,10.775,56.237C11.309,55.63,12.146,55.396,12.918,55.63C13.813,55.905,14.704,56.094,15.562,56.196C10.279,53.044,4.622,47.01,4.622,37.966C4.622,37.176,5.076,36.456,5.79,36.115C6.503,35.774,7.348,35.873,7.964,36.37C8.62,36.903,9.322,37.351,10.049,37.704C8.399,35.465,7.189,32.934,6.482,30.245C5.119,24.983,5.911,19.646,8.768,14.827C9.113,14.248,9.72,13.875,10.392,13.829C11.064,13.782,11.717,14.068,12.138,14.593C18.181,22.142,28.919,31.263,46.184,32.926C45.864,27.462,47.506,18.509,55.051,14.105C64.332,8.686,73.261,9.384,80.933,16.104C84.332,15.348,89.697,13.017,90.809,12.241C91.515,11.746,92.455,11.746,93.162,12.24C93.868,12.733,94.191,13.616,93.97,14.449C93.457,16.383,92.295,18.534,90.85,20.455C91.995,20.114,92.96,19.769,93.473,19.507C94.296,19.083,95.3,19.262,95.926,19.944C96.551,20.626,96.643,21.642,96.15,22.425C93.736,26.243,89.832,29.798,87.225,31.727C88.633,49.07,78.498,68.45,62.231,79.25C56.196,83.252,46.279,88.046,33.435,88.046ZM12.931,79.66C34.896,88.67,51.529,81.417,59.956,75.822C75.375,65.584,84.861,47.137,83.026,30.959C82.937,30.191,83.29,29.437,83.937,29.014C85.042,28.287,86.729,26.953,88.428,25.299C86.758,25.66,85.136,25.902,83.958,25.906C82.825,25.771,82.123,25.212,81.938,24.244C81.749,23.276,82.277,22.311,83.194,21.949C84.356,21.485,85.924,20.085,87.279,18.37C84.955,19.269,82.443,20.065,80.596,20.332C79.978,20.421,79.354,20.223,78.901,19.794C72.423,13.71,65.1,12.988,57.12,17.643C49.957,21.83,49.797,31.587,50.552,34.67C50.71,35.302,50.558,35.972,50.142,36.473C49.726,36.975,49.097,37.249,48.446,37.211C30.093,36.242,18.172,27.581,11.001,19.593C9.812,22.663,9.622,26.03,10.459,29.215C11.666,33.866,14.704,37.433,17.011,38.779C17.747,39.208,18.141,40.048,18.001,40.888C17.862,41.728,17.218,42.395,16.383,42.564C13.962,43.01,11.465,42.746,9.191,41.805C11.33,50.363,20.229,54.394,22.733,54.673C23.547,54.767,24.227,55.334,24.466,56.117C24.705,56.9,24.456,57.75,23.833,58.282C22.039,59.796,19.355,60.527,16.329,60.375C19.761,64.948,25.081,67.575,31.44,67.715C32.282,67.733,33.027,68.264,33.319,69.054C33.612,69.844,33.392,70.732,32.765,71.294C27.725,75.81,20.492,78.778,12.931,79.66ZM12.931,79.66"/>
</g>
  <g id="Bold-S" transform="matrix(1.0,0.0,0.0,1.0,2292.000938023158,611.5109575544085)">  <path fill-opacity="1" stroke-linejoin="miter" stroke-dasharray="none" stroke-width="1px" stroke="none" fill-rule="nonzero" stroke-miterlimit="4" stroke-linecap="butt" fill="#000000" stroke-opacity="1" d="M33.435,88.046C24.609,88.046,14.396,85.781,3.099,79.438C2.245,78.958,1.851,77.944,2.155,77.017C2.459,76.089,3.374,75.477,4.343,75.613C11.789,76.466,19.921,74.722,25.996,71.155C19.039,69.521,13.415,65.001,10.447,58.438C10.114,57.704,10.243,56.842,10.775,56.237C11.309,55.63,12.146,55.396,12.918,55.63C13.813,55.905,14.704,56.094,15.562,56.196C10.279,53.044,4.622,47.01,4.622,37.966C4.622,37.176,5.076,36.456,5.79,36.115C6.503,35.774,7.348,35.873,7.964,36.37C8.62,36.903,9.322,37.351,10.049,37.704C8.399,35.465,7.189,32.934,6.482,30.245C5.119,24.983,5.911,19.646,8.768,14.827C9.113,14.248,9.72,13.875,10.392,13.829C11.064,13.782,11.717,14.068,12.138,14.593C18.181,22.142,28.919,31.263,46.184,32.926C45.864,27.462,47.506,18.509,55.051,14.105C64.332,8.686,73.261,9.384,80.933,16.104C84.332,15.348,89.697,13.017,90.809,12.241C91.515,11.746,92.455,11.746,93.162,12.24C93.868,12.733,94.191,13.616,93.97,14.449C93.457,16.383,92.295,18.534,90.85,20.455C91.995,20.114,92.96,19.769,93.473,19.507C94.296,19.083,95.3,19.262,95.926,19.944C96.551,20.626,96.643,21.642,96.15,22.425C93.736,26.243,89.832,29.798,87.225,31.727C88.633,49.07,78.498,68.45,62.231,79.25C56.196,83.252,46.279,88.046,33.435,88.046ZM12.931,79.66C34.896,88.67,51.529,81.417,59.956,75.822C75.375,65.584,84.861,47.137,83.026,30.959C82.937,30.191,83.29,29.437,83.937,29.014C85.042,28.287,86.729,26.953,88.428,25.299C86.758,25.66,85.136,25.902,83.958,25.906C82.825,25.771,82.123,25.212,81.938,24.244C81.749,23.276,82.277,22.311,83.194,21.949C84.356,21.485,85.924,20.085,87.279,18.37C84.955,19.269,82.443,20.065,80.596,20.332C79.978,20.421,79.354,20.223,78.901,19.794C72.423,13.71,65.1,12.988,57.12,17.643C49.957,21.83,49.797,31.587,50.552,34.67C50.71,35.302,50.558,35.972,50.142,36.473C49.726,36.975,49.097,37.249,48.446,37.211C30.093,36.242,18.172,27.581,11.001,19.593C9.812,22.663,9.622,26.03,10.459,29.215C11.666,33.866,14.704,37.433,17.011,38.779C17.747,39.208,18.141,40.048,18.001,40.888C17.862,41.728,17.218,42.395,16.383,42.564C13.962,43.01,11.465,42.746,9.191,41.805C11.33,50.363,20.229,54.394,22.733,54.673C23.547,54.767,24.227,55.334,24.466,56.117C24.705,56.9,24.456,57.75,23.833,58.282C22.039,59.796,19.355,60.527,16.329,60.375C19.761,64.948,25.081,67.575,31.44,67.715C32.282,67.733,33.027,68.264,33.319,69.054C33.612,69.844,33.392,70.732,32.765,71.294C27.725,75.81,20.492,78.778,12.931,79.66ZM12.931,79.66"/>
</g>
  <g id="Semibold-S" transform="matrix(1.0,0.0,0.0,1.0,1995.2909380231583,611.5109575544085)">  <path fill-rule="nonzero" stroke-opacity="1" stroke="none" stroke-dasharray="none" stroke-miterlimit="4" fill="#000000" fill-opacity="1" stroke-linecap="butt" stroke-linejoin="miter" stroke-width="1px" d="M33.435,88.046C24.609,88.046,14.396,85.781,3.099,79.438C2.245,78.958,1.851,77.944,2.155,77.017C2.459,76.089,3.374,75.477,4.343,75.613C11.789,76.466,19.921,74.722,25.996,71.155C19.039,69.521,13.415,65.001,10.447,58.438C10.114,57.704,10.243,56.842,10.775,56.237C11.309,55.63,12.146,55.396,12.918,55.63C13.813,55.905,14.704,56.094,15.562,56.196C10.279,53.044,4.622,47.01,4.622,37.966C4.622,37.176,5.076,36.456,5.79,36.115C6.503,35.774,7.348,35.873,7.964,36.37C8.62,36.903,9.322,37.351,10.049,37.704C8.399,35.465,7.189,32.934,6.482,30.245C5.119,24.983,5.911,19.646,8.768,14.827C9.113,14.248,9.72,13.875,10.392,13.829C11.064,13.782,11.717,14.068,12.138,14.593C18.181,22.142,28.919,31.263,46.184,32.926C45.864,27.462,47.506,18.509,55.051,14.105C64.332,8.686,73.261,9.384,80.933,16.104C84.332,15.348,89.697,13.017,90.809,12.241C91.515,11.746,92.455,11.746,93.162,12.24C93.868,12.733,94.191,13.616,93.97,14.449C93.457,16.383,92.295,18.534,90.85,20.455C91.995,20.114,92.96,19.769,93.473,19.507C94.296,19.083,95.3,19.262,95.926,19.944C96.551,20.626,96.643,21.642,96.15,22.425C93.736,26.243,89.832,29.798,87.225,31.727C88.633,49.07,78.498,68.45,62.231,79.25C56.196,83.252,46.279,88.046,33.435,88.046ZM12.931,79.66C34.896,88.67,51.529,81.417,59.956,75.822C75.375,65.584,84.861,47.137,83.026,30.959C82.937,30.191,83.29,29.437,83.937,29.014C85.042,28.287,86.729,26.953,88.428,25.299C86.758,25.66,85.136,25.902,83.958,25.906C82.825,25.771,82.123,25.212,81.938,24.244C81.749,23.276,82.277,22.311,83.194,21.949C84.356,21.485,85.924,20.085,87.279,18.37C84.955,19.269,82.443,20.065,80.596,20.332C79.978,20.421,79.354,20.223,78.901,19.794C72.423,13.71,65.1,12.988,57.12,17.643C49.957,21.83,49.797,31.587,50.552,34.67C50.71,35.302,50.558,35.972,50.142,36.473C49.726,36.975,49.097,37.249,48.446,37.211C30.093,36.242,18.172,27.581,11.001,19.593C9.812,22.663,9.622,26.03,10.459,29.215C11.666,33.866,14.704,37.433,17.011,38.779C17.747,39.208,18.141,40.048,18.001,40.888C17.862,41.728,17.218,42.395,16.383,42.564C13.962,43.01,11.465,42.746,9.191,41.805C11.33,50.363,20.229,54.394,22.733,54.673C23.547,54.767,24.227,55.334,24.466,56.117C24.705,56.9,24.456,57.75,23.833,58.282C22.039,59.796,19.355,60.527,16.329,60.375C19.761,64.948,25.081,67.575,31.44,67.715C32.282,67.733,33.027,68.264,33.319,69.054C33.612,69.844,33.392,70.732,32.765,71.294C27.725,75.81,20.492,78.778,12.931,79.66ZM12.931,79.66"/>
</g>
  <g id="Medium-S" transform="matrix(1.0,0.0,0.0,1.0,1698.5809380231583,611.5109575544085)">  <path fill="#000000" stroke-dasharray="none" fill-rule="nonzero" stroke-linecap="butt" stroke-width="1px" stroke-opacity="1" stroke-linejoin="miter" stroke-miterlimit="4" fill-opacity="1" stroke="none" d="M33.435,88.046C24.609,88.046,14.396,85.781,3.099,79.438C2.245,78.958,1.851,77.944,2.155,77.017C2.459,76.089,3.374,75.477,4.343,75.613C11.789,76.466,19.921,74.722,25.996,71.155C19.039,69.521,13.415,65.001,10.447,58.438C10.114,57.704,10.243,56.842,10.775,56.237C11.309,55.63,12.146,55.396,12.918,55.63C13.813,55.905,14.704,56.094,15.562,56.196C10.279,53.044,4.622,47.01,4.622,37.966C4.622,37.176,5.076,36.456,5.79,36.115C6.503,35.774,7.348,35.873,7.964,36.37C8.62,36.903,9.322,37.351,10.049,37.704C8.399,35.465,7.189,32.934,6.482,30.245C5.119,24.983,5.911,19.646,8.768,14.827C9.113,14.248,9.72,13.875,10.392,13.829C11.064,13.782,11.717,14.068,12.138,14.593C18.181,22.142,28.919,31.263,46.184,32.926C45.864,27.462,47.506,18.509,55.051,14.105C64.332,8.686,73.261,9.384,80.933,16.104C84.332,15.348,89.697,13.017,90.809,12.241C91.515,11.746,92.455,11.746,93.162,12.24C93.868,12.733,94.191,13.616,93.97,14.449C93.457,16.383,92.295,18.534,90.85,20.455C91.995,20.114,92.96,19.769,93.473,19.507C94.296,19.083,95.3,19.262,95.926,19.944C96.551,20.626,96.643,21.642,96.15,22.425C93.736,26.243,89.832,29.798,87.225,31.727C88.633,49.07,78.498,68.45,62.231,79.25C56.196,83.252,46.279,88.046,33.435,88.046ZM12.931,79.66C34.896,88.67,51.529,81.417,59.956,75.822C75.375,65.584,84.861,47.137,83.026,30.959C82.937,30.191,83.29,29.437,83.937,29.014C85.042,28.287,86.729,26.953,88.428,25.299C86.758,25.66,85.136,25.902,83.958,25.906C82.825,25.771,82.123,25.212,81.938,24.244C81.749,23.276,82.277,22.311,83.194,21.949C84.356,21.485,85.924,20.085,87.279,18.37C84.955,19.269,82.443,20.065,80.596,20.332C79.978,20.421,79.354,20.223,78.901,19.794C72.423,13.71,65.1,12.988,57.12,17.643C49.957,21.83,49.797,31.587,50.552,34.67C50.71,35.302,50.558,35.972,50.142,36.473C49.726,36.975,49.097,37.249,48.446,37.211C30.093,36.242,18.172,27.581,11.001,19.593C9.812,22.663,9.622,26.03,10.459,29.215C11.666,33.866,14.704,37.433,17.011,38.779C17.747,39.208,18.141,40.048,18.001,40.888C17.862,41.728,17.218,42.395,16.383,42.564C13.962,43.01,11.465,42.746,9.191,41.805C11.33,50.363,20.229,54.394,22.733,54.673C23.547,54.767,24.227,55.334,24.466,56.117C24.705,56.9,24.456,57.75,23.833,58.282C22.039,59.796,19.355,60.527,16.329,60.375C19.761,64.948,25.081,67.575,31.44,67.715C32.282,67.733,33.027,68.264,33.319,69.054C33.612,69.844,33.392,70.732,32.765,71.294C27.725,75.81,20.492,78.778,12.931,79.66ZM12.931,79.66"/>
</g>
  <g id="Regular-S" transform="matrix(1.0,0.0,0.0,1.0,1401.8709380231583,611.5109575544085)">  <path fill="#000000" stroke-linejoin="miter" stroke-opacity="1" stroke-width="1px" stroke="none" stroke-miterlimit="4" fill-opacity="1" stroke-linecap="butt" fill-rule="nonzero" stroke-dasharray="none" d="M33.435,88.046C24.609,88.046,14.396,85.781,3.099,79.438C2.245,78.958,1.851,77.944,2.155,77.017C2.459,76.089,3.374,75.477,4.343,75.613C11.789,76.466,19.921,74.722,25.996,71.155C19.039,69.521,13.415,65.001,10.447,58.438C10.114,57.704,10.243,56.842,10.775,56.237C11.309,55.63,12.146,55.396,12.918,55.63C13.813,55.905,14.704,56.094,15.562,56.196C10.279,53.044,4.622,47.01,4.622,37.966C4.622,37.176,5.076,36.456,5.79,36.115C6.503,35.774,7.348,35.873,7.964,36.37C8.62,36.903,9.322,37.351,10.049,37.704C8.399,35.465,7.189,32.934,6.482,30.245C5.119,24.983,5.911,19.646,8.768,14.827C9.113,14.248,9.72,13.875,10.392,13.829C11.064,13.782,11.717,14.068,12.138,14.593C18.181,22.142,28.919,31.263,46.184,32.926C45.864,27.462,47.506,18.509,55.051,14.105C64.332,8.686,73.261,9.384,80.933,16.104C84.332,15.348,89.697,13.017,90.809,12.241C91.515,11.746,92.455,11.746,93.162,12.24C93.868,12.733,94.191,13.616,93.97,14.449C93.457,16.383,92.295,18.534,90.85,20.455C91.995,20.114,92.96,19.769,93.473,19.507C94.296,19.083,95.3,19.262,95.926,19.944C96.551,20.626,96.643,21.642,96.15,22.425C93.736,26.243,89.832,29.798,87.225,31.727C88.633,49.07,78.498,68.45,62.231,79.25C56.196,83.252,46.279,88.046,33.435,88.046ZM12.931,79.66C34.896,88.67,51.529,81.417,59.956,75.822C75.375,65.584,84.861,47.137,83.026,30.959C82.937,30.191,83.29,29.437,83.937,29.014C85.042,28.287,86.729,26.953,88.428,25.299C86.758,25.66,85.136,25.902,83.958,25.906C82.825,25.771,82.123,25.212,81.938,24.244C81.749,23.276,82.277,22.311,83.194,21.949C84.356,21.485,85.924,20.085,87.279,18.37C84.955,19.269,82.443,20.065,80.596,20.332C79.978,20.421,79.354,20.223,78.901,19.794C72.423,13.71,65.1,12.988,57.12,17.643C49.957,21.83,49.797,31.587,50.552,34.67C50.71,35.302,50.558,35.972,50.142,36.473C49.726,36.975,49.097,37.249,48.446,37.211C30.093,36.242,18.172,27.581,11.001,19.593C9.812,22.663,9.622,26.03,10.459,29.215C11.666,33.866,14.704,37.433,17.011,38.779C17.747,39.208,18.141,40.048,18.001,40.888C17.862,41.728,17.218,42.395,16.383,42.564C13.962,43.01,11.465,42.746,9.191,41.805C11.33,50.363,20.229,54.394,22.733,54.673C23.547,54.767,24.227,55.334,24.466,56.117C24.705,56.9,24.456,57.75,23.833,58.282C22.039,59.796,19.355,60.527,16.329,60.375C19.761,64.948,25.081,67.575,31.44,67.715C32.282,67.733,33.027,68.264,33.319,69.054C33.612,69.844,33.392,70.732,32.765,71.294C27.725,75.81,20.492,78.778,12.931,79.66ZM12.931,79.66"/>
</g>
  <g id="Light-S" transform="matrix(1.0,0.0,0.0,1.0,1105.1609380231585,611.5109575544085)">  <path stroke-linecap="butt" stroke-width="1px" stroke-opacity="1" stroke="none" stroke-linejoin="miter" stroke-miterlimit="4" fill="#000000" fill-rule="nonzero" fill-opacity="1" stroke-dasharray="none" d="M33.435,88.046C24.609,88.046,14.396,85.781,3.099,79.438C2.245,78.958,1.851,77.944,2.155,77.017C2.459,76.089,3.374,75.477,4.343,75.613C11.789,76.466,19.921,74.722,25.996,71.155C19.039,69.521,13.415,65.001,10.447,58.438C10.114,57.704,10.243,56.842,10.775,56.237C11.309,55.63,12.146,55.396,12.918,55.63C13.813,55.905,14.704,56.094,15.562,56.196C10.279,53.044,4.622,47.01,4.622,37.966C4.622,37.176,5.076,36.456,5.79,36.115C6.503,35.774,7.348,35.873,7.964,36.37C8.62,36.903,9.322,37.351,10.049,37.704C8.399,35.465,7.189,32.934,6.482,30.245C5.119,24.983,5.911,19.646,8.768,14.827C9.113,14.248,9.72,13.875,10.392,13.829C11.064,13.782,11.717,14.068,12.138,14.593C18.181,22.142,28.919,31.263,46.184,32.926C45.864,27.462,47.506,18.509,55.051,14.105C64.332,8.686,73.261,9.384,80.933,16.104C84.332,15.348,89.697,13.017,90.809,12.241C91.515,11.746,92.455,11.746,93.162,12.24C93.868,12.733,94.191,13.616,93.97,14.449C93.457,16.383,92.295,18.534,90.85,20.455C91.995,20.114,92.96,19.769,93.473,19.507C94.296,19.083,95.3,19.262,95.926,19.944C96.551,20.626,96.643,21.642,96.15,22.425C93.736,26.243,89.832,29.798,87.225,31.727C88.633,49.07,78.498,68.45,62.231,79.25C56.196,83.252,46.279,88.046,33.435,88.046ZM12.931,79.66C34.896,88.67,51.529,81.417,59.956,75.822C75.375,65.584,84.861,47.137,83.026,30.959C82.937,30.191,83.29,29.437,83.937,29.014C85.042,28.287,86.729,26.953,88.428,25.299C86.758,25.66,85.136,25.902,83.958,25.906C82.825,25.771,82.123,25.212,81.938,24.244C81.749,23.276,82.277,22.311,83.194,21.949C84.356,21.485,85.924,20.085,87.279,18.37C84.955,19.269,82.443,20.065,80.596,20.332C79.978,20.421,79.354,20.223,78.901,19.794C72.423,13.71,65.1,12.988,57.12,17.643C49.957,21.83,49.797,31.587,50.552,34.67C50.71,35.302,50.558,35.972,50.142,36.473C49.726,36.975,49.097,37.249,48.446,37.211C30.093,36.242,18.172,27.581,11.001,19.593C9.812,22.663,9.622,26.03,10.459,29.215C11.666,33.866,14.704,37.433,17.011,38.779C17.747,39.208,18.141,40.048,18.001,40.888C17.862,41.728,17.218,42.395,16.383,42.564C13.962,43.01,11.465,42.746,9.191,41.805C11.33,50.363,20.229,54.394,22.733,54.673C23.547,54.767,24.227,55.334,24.466,56.117C24.705,56.9,24.456,57.75,23.833,58.282C22.039,59.796,19.355,60.527,16.329,60.375C19.761,64.948,25.081,67.575,31.44,67.715C32.282,67.733,33.027,68.264,33.319,69.054C33.612,69.844,33.392,70.732,32.765,71.294C27.725,75.81,20.492,78.778,12.931,79.66ZM12.931,79.66"/>
</g>
  <g id="Thin-S" transform="matrix(1.0,0.0,0.0,1.0,808.4509380231585,611.5109575544085)">  <path stroke-linejoin="miter" stroke-linecap="butt" stroke-width="1px" stroke-opacity="1" stroke-miterlimit="4" stroke-dasharray="none" fill="#000000" fill-opacity="1" fill-rule="nonzero" stroke="none" d="M33.435,88.046C24.609,88.046,14.396,85.781,3.099,79.438C2.245,78.958,1.851,77.944,2.155,77.017C2.459,76.089,3.374,75.477,4.343,75.613C11.789,76.466,19.921,74.722,25.996,71.155C19.039,69.521,13.415,65.001,10.447,58.438C10.114,57.704,10.243,56.842,10.775,56.237C11.309,55.63,12.146,55.396,12.918,55.63C13.813,55.905,14.704,56.094,15.562,56.196C10.279,53.044,4.622,47.01,4.622,37.966C4.622,37.176,5.076,36.456,5.79,36.115C6.503,35.774,7.348,35.873,7.964,36.37C8.62,36.903,9.322,37.351,10.049,37.704C8.399,35.465,7.189,32.934,6.482,30.245C5.119,24.983,5.911,19.646,8.768,14.827C9.113,14.248,9.72,13.875,10.392,13.829C11.064,13.782,11.717,14.068,12.138,14.593C18.181,22.142,28.919,31.263,46.184,32.926C45.864,27.462,47.506,18.509,55.051,14.105C64.332,8.686,73.261,9.384,80.933,16.104C84.332,15.348,89.697,13.017,90.809,12.241C91.515,11.746,92.455,11.746,93.162,12.24C93.868,12.733,94.191,13.616,93.97,14.449C93.457,16.383,92.295,18.534,90.85,20.455C91.995,20.114,92.96,19.769,93.473,19.507C94.296,19.083,95.3,19.262,95.926,19.944C96.551,20.626,96.643,21.642,96.15,22.425C93.736,26.243,89.832,29.798,87.225,31.727C88.633,49.07,78.498,68.45,62.231,79.25C56.196,83.252,46.279,88.046,33.435,88.046ZM12.931,79.66C34.896,88.67,51.529,81.417,59.956,75.822C75.375,65.584,84.861,47.137,83.026,30.959C82.937,30.191,83.29,29.437,83.937,29.014C85.042,28.287,86.729,26.953,88.428,25.299C86.758,25.66,85.136,25.902,83.958,25.906C82.825,25.771,82.123,25.212,81.938,24.244C81.749,23.276,82.277,22.311,83.194,21.949C84.356,21.485,85.924,20.085,87.279,18.37C84.955,19.269,82.443,20.065,80.596,20.332C79.978,20.421,79.354,20.223,78.901,19.794C72.423,13.71,65.1,12.988,57.12,17.643C49.957,21.83,49.797,31.587,50.552,34.67C50.71,35.302,50.558,35.972,50.142,36.473C49.726,36.975,49.097,37.249,48.446,37.211C30.093,36.242,18.172,27.581,11.001,19.593C9.812,22.663,9.622,26.03,10.459,29.215C11.666,33.866,14.704,37.433,17.011,38.779C17.747,39.208,18.141,40.048,18.001,40.888C17.862,41.728,17.218,42.395,16.383,42.564C13.962,43.01,11.465,42.746,9.191,41.805C11.33,50.363,20.229,54.394,22.733,54.673C23.547,54.767,24.227,55.334,24.466,56.117C24.705,56.9,24.456,57.75,23.833,58.282C22.039,59.796,19.355,60.527,16.329,60.375C19.761,64.948,25.081,67.575,31.44,67.715C32.282,67.733,33.027,68.264,33.319,69.054C33.612,69.844,33.392,70.732,32.765,71.294C27.725,75.81,20.492,78.778,12.931,79.66ZM12.931,79.66"/>
</g>
  <g id="Ultralight-S" transform="matrix(1.0,0.0,0.0,1.0,511.7409380231585,611.5109575544085)">  <path fill-rule="nonzero" stroke="none" fill-opacity="1" stroke-linejoin="miter" stroke-opacity="1" stroke-linecap="butt" stroke-dasharray="none" stroke-miterlimit="4" stroke-width="1px" fill="#000000" d="M33.435,88.046C24.609,88.046,14.396,85.781,3.099,79.438C2.245,78.958,1.851,77.944,2.155,77.017C2.459,76.089,3.374,75.477,4.343,75.613C11.789,76.466,19.921,74.722,25.996,71.155C19.039,69.521,13.415,65.001,10.447,58.438C10.114,57.704,10.243,56.842,10.775,56.237C11.309,55.63,12.146,55.396,12.918,55.63C13.813,55.905,14.704,56.094,15.562,56.196C10.279,53.044,4.622,47.01,4.622,37.966C4.622,37.176,5.076,36.456,5.79,36.115C6.503,35.774,7.348,35.873,7.964,36.37C8.62,36.903,9.322,37.351,10.049,37.704C8.399,35.465,7.189,32.934,6.482,30.245C5.119,24.983,5.911,19.646,8.768,14.827C9.113,14.248,9.72,13.875,10.392,13.829C11.064,13.782,11.717,14.068,12.138,14.593C18.181,22.142,28.919,31.263,46.184,32.926C45.864,27.462,47.506,18.509,55.051,14.105C64.332,8.686,73.261,9.384,80.933,16.104C84.332,15.348,89.697,13.017,90.809,12.241C91.515,11.746,92.455,11.746,93.162,12.24C93.868,12.733,94.191,13.616,93.97,14.449C93.457,16.383,92.295,18.534,90.85,20.455C91.995,20.114,92.96,19.769,93.473,19.507C94.296,19.083,95.3,19.262,95.926,19.944C96.551,20.626,96.643,21.642,96.15,22.425C93.736,26.243,89.832,29.798,87.225,31.727C88.633,49.07,78.498,68.45,62.231,79.25C56.196,83.252,46.279,88.046,33.435,88.046ZM12.931,79.66C34.896,88.67,51.529,81.417,59.956,75.822C75.375,65.584,84.861,47.137,83.026,30.959C82.937,30.191,83.29,29.437,83.937,29.014C85.042,28.287,86.729,26.953,88.428,25.299C86.758,25.66,85.136,25.902,83.958,25.906C82.825,25.771,82.123,25.212,81.938,24.244C81.749,23.276,82.277,22.311,83.194,21.949C84.356,21.485,85.924,20.085,87.279,18.37C84.955,19.269,82.443,20.065,80.596,20.332C79.978,20.421,79.354,20.223,78.901,19.794C72.423,13.71,65.1,12.988,57.12,17.643C49.957,21.83,49.797,31.587,50.552,34.67C50.71,35.302,50.558,35.972,50.142,36.473C49.726,36.975,49.097,37.249,48.446,37.211C30.093,36.242,18.172,27.581,11.001,19.593C9.812,22.663,9.622,26.03,10.459,29.215C11.666,33.866,14.704,37.433,17.011,38.779C17.747,39.208,18.141,40.048,18.001,40.888C17.862,41.728,17.218,42.395,16.383,42.564C13.962,43.01,11.465,42.746,9.191,41.805C11.33,50.363,20.229,54.394,22.733,54.673C23.547,54.767,24.227,55.334,24.466,56.117C24.705,56.9,24.456,57.75,23.833,58.282C22.039,59.796,19.355,60.527,16.329,60.375C19.761,64.948,25.081,67.575,31.44,67.715C32.282,67.733,33.027,68.264,33.319,69.054C33.612,69.844,33.392,70.732,32.765,71.294C27.725,75.81,20.492,78.778,12.931,79.66ZM12.931,79.66"/>
</g>
 </g>
</svg>
